<svg class="animated" id="freepik_stories-firefighter" xmlns="http://www.w3.org/2000/svg" viewBox="0 0 500 500" version="1.1" xmlns:xlink="http://www.w3.org/1999/xlink" xmlns:svgjs="http://svgjs.com/svgjs"><style>svg#freepik_stories-firefighter:not(.animated) .animable {opacity: 0;}svg#freepik_stories-firefighter.animated #freepik--background-complete--inject-39 {animation: 1s 1 forwards ease-in slideRight,1.5s Infinite  linear floating;animation-delay: 0s,1s;}svg#freepik_stories-firefighter.animated #freepik--Floor--inject-39 {animation: 1s 1 forwards cubic-bezier(.36,-0.01,.5,1.38) slideUp;animation-delay: 0s;}svg#freepik_stories-firefighter.animated #freepik--Hydrant--inject-39 {animation: 1s 1 forwards cubic-bezier(.36,-0.01,.5,1.38) fadeIn,1.5s Infinite  linear floating;animation-delay: 0s,1s;}svg#freepik_stories-firefighter.animated #freepik--Plants--inject-39 {animation: 1s 1 forwards ease-in lightSpeedLeft,1.5s Infinite  linear floating;animation-delay: 0s,1s;}svg#freepik_stories-firefighter.animated #freepik--Character--inject-39 {animation: 1s 1 forwards ease-in slideRight,1.5s Infinite  linear heartbeat;animation-delay: 0s,1s;}            @keyframes slideRight {                0% {                    opacity: 0;                    transform: translateX(30px);                }                100% {                    opacity: 1;                    transform: translateX(0);                }            }                    @keyframes floating {                0% {                    opacity: 1;                    transform: translateY(0px);                }                50% {                    transform: translateY(-10px);                }                100% {                    opacity: 1;                    transform: translateY(0px);                }            }                    @keyframes slideUp {                0% {                    opacity: 0;                    transform: translateY(30px);                }                100% {                    opacity: 1;                    transform: inherit;                }            }                    @keyframes fadeIn {                0% {                    opacity: 0;                }                100% {                    opacity: 1;                }            }                    @keyframes lightSpeedLeft {              from {                transform: translate3d(-50%, 0, 0) skewX(20deg);                opacity: 0;              }              60% {                transform: skewX(-10deg);                opacity: 1;              }              80% {                transform: skewX(2deg);              }              to {                opacity: 1;                transform: translate3d(0, 0, 0);              }            }                    @keyframes heartbeat {                0% {                    transform: scale(1);                }                10% {                    transform: scale(1.1);                }                30% {                    transform: scale(1);                }                40% {                    transform: scale(1);                }                50% {                    transform: scale(1.1);                }                60% {                    transform: scale(1);                }                100% {                    transform: scale(1);                }            }        </style><g id="freepik--background-complete--inject-39" class="animable" style="transform-origin: 250.035px 200.245px;"><path d="M439.63,54.9c.79-5.68-7.24-10.36-13.26-10.84-2.88-.24-5.86.2-8.59-.75-5.9-2.05-8.26-9.67-14-12.1-4.31-1.82-9.26-.2-13.43,1.9s-8.3,4.74-13,5c-4.06.26-8.46-1.25-12,.74-2.64,1.47-4,4.52-6.46,6.31s-5.5,2.14-8.45,2.3-6,.19-8.72,1.42-4.92,4.08-4.36,7Z" style="fill: rgb(235, 235, 235); transform-origin: 388.478px 43.1504px;" id="elnb34ai30rq" class="animable"></path><path d="M367.92,126.38c.72-5.2-6.63-9.48-12.14-9.93-2.63-.21-5.37.19-7.86-.68-5.4-1.88-7.56-8.86-12.83-11.08-3.94-1.66-8.47-.18-12.29,1.74s-7.6,4.34-11.86,4.62c-3.72.23-7.75-1.14-11,.67-2.42,1.35-3.69,4.14-5.92,5.79s-5,1.95-7.74,2.09-5.51.18-8,1.31-4.51,3.73-4,6.39Z" style="fill: rgb(245, 245, 245); transform-origin: 321.085px 115.635px;" id="elxn3wzsbpuvh" class="animable"></path><path d="M170.27,70c.63-5.82-5.83-10.61-10.68-11.1-2.32-.24-4.72.21-6.92-.76C147.92,56,146,48.2,141.39,45.72c-3.46-1.86-7.45-.21-10.81,1.94s-6.68,4.86-10.44,5.17c-3.26.26-6.81-1.28-9.66.75-2.13,1.51-3.25,4.63-5.21,6.47s-4.42,2.19-6.8,2.35-4.85.2-7,1.46A7.39,7.39,0,0,0,87.94,71Z" style="fill: rgb(235, 235, 235); transform-origin: 129.104px 57.9561px;" id="el077gle9ut8hu" class="animable"></path><rect x="95.18" y="130.12" width="9.15" height="8.01" rx="3.89" style="fill: rgb(245, 245, 245); transform-origin: 99.755px 134.125px;" id="el1xaa1yxutqw" class="animable"></rect><rect x="91.76" y="134.13" width="16" height="7.19" rx="3.14" style="fill: rgb(224, 224, 224); transform-origin: 99.76px 137.725px;" id="el640lfoc9obh" class="animable"></rect><path d="M22.9,215.68h5.78a0,0,0,0,1,0,0v6.48a0,0,0,0,1,0,0H22.9A3.15,3.15,0,0,1,19.75,219v-.19A3.15,3.15,0,0,1,22.9,215.68Z" style="fill: rgb(224, 224, 224); transform-origin: 24.215px 218.92px;" id="el756t5mp2bi" class="animable"></path><rect x="30.72" y="229.2" width="431.8" height="50.68" style="fill: rgb(235, 235, 235); transform-origin: 246.62px 254.54px;" id="el5jeqj4qk9wg" class="animable"></rect><path d="M214.5,280.71c-.21.33,114.71-1.29,114.71-1.29s3.09-41.59,43.23-42.28,43.19,41,43.19,41h55V156.42H214.5Z" style="fill: rgb(235, 235, 235); transform-origin: 342.565px 218.587px;" id="elcrvgh0msiu9" class="animable"></path><path d="M44.27,143.41l-19.8,61.11v75.36H62.9S63,235,105.1,235.75s43.31,44.13,43.31,44.13h22.81V145.22a5.85,5.85,0,0,0-5.85-5.86H49.84A5.87,5.87,0,0,0,44.27,143.41Z" style="fill: rgb(245, 245, 245); transform-origin: 97.845px 209.62px;" id="ela0ril2v6hj4" class="animable"></path><path d="M41.34,152.45s5.6-.45,3.94,5.68S32.71,200.5,32.71,200.5L25,202.89Z" style="fill: rgb(235, 235, 235); transform-origin: 35.2938px 177.666px;" id="elmiolchf9dpj" class="animable"></path><path d="M41.34,152.45a.93.93,0,0,1-.06.28l-.23.77c-.22.71-.52,1.69-.91,2.94-.81,2.57-2,6.24-3.41,10.77-2.92,9.11-7,21.69-11.48,35.76l-.32-.33,3.67-1.14,4-1.25-.17.17c4.22-14.1,8-26.69,10.71-35.8.68-2.26,1.3-4.3,1.85-6.1a9.29,9.29,0,0,0,.44-2.53,3.53,3.53,0,0,0-.57-2,2.92,2.92,0,0,0-1.3-1.06,4.39,4.39,0,0,0-1.2-.36c-.34-.06-.6-.07-.78-.09a.85.85,0,0,1-.27,0l.27,0a4.92,4.92,0,0,1,.79,0,4.5,4.5,0,0,1,1.25.32,3.17,3.17,0,0,1,1.4,1.08,3.71,3.71,0,0,1,.64,2.13,9.15,9.15,0,0,1-.4,2.6c-.53,1.81-1.12,3.86-1.78,6.13-2.69,9.12-6.4,21.73-10.55,35.85l0,.14-.13,0-4,1.25-3.67,1.14-.48.14.16-.47c4.6-14.1,8.73-26.71,11.71-35.83,1.49-4.5,2.7-8.13,3.54-10.68.42-1.22.74-2.18,1-2.87.11-.31.2-.55.26-.74Z" style="fill: rgb(224, 224, 224); transform-origin: 35.1551px 177.855px;" id="elcza8sezeaql" class="animable"></path><path d="M61.17,156.52,50.45,187.41a6.35,6.35,0,0,0,6,8.44h33a4.33,4.33,0,0,0,4.33-4.33V156a3.55,3.55,0,0,0-3.56-3.55H66.89A6.05,6.05,0,0,0,61.17,156.52Z" style="fill: rgb(235, 235, 235); transform-origin: 71.9381px 174.15px;" id="ellnywdt2c5re" class="animable"></path><path d="M61.17,156.52a4.52,4.52,0,0,1,.67-1.45,6.07,6.07,0,0,1,3.7-2.57,16.58,16.58,0,0,1,3.31-.18l3.92,0,9.55,0h7a10,10,0,0,1,1.53.06,3.76,3.76,0,0,1,2.59,1.79,3.6,3.6,0,0,1,.51,1.57c0,.57,0,1.08,0,1.62,0,1.08,0,2.17,0,3.28,0,2.22,0,4.5,0,6.84,0,4.68,0,9.6,0,14.69v7.77c0,.66,0,1.3,0,2a4.38,4.38,0,0,1-.62,2,4.63,4.63,0,0,1-3.46,2.24H59.44c-1.18,0-2.31,0-3.48,0a6.57,6.57,0,0,1-3.26-1.15,6.68,6.68,0,0,1-2.81-5.75,10.74,10.74,0,0,1,.78-3c.33-1,.65-1.88,1-2.79.64-1.83,1.26-3.58,1.84-5.25l5.58-15.82L60.6,158l.41-1.11a2.47,2.47,0,0,1,.16-.37,2.54,2.54,0,0,1-.11.39L60.7,158c-.34,1-.83,2.46-1.45,4.32l-5.42,15.87L52,183.49l-1,2.79a10.3,10.3,0,0,0-.73,2.9A6.2,6.2,0,0,0,53,194.53a6.14,6.14,0,0,0,3,1.06c1.11,0,2.29,0,3.45,0l30.44,0a4.1,4.1,0,0,0,3.06-2,4,4,0,0,0,.56-1.77c0-.63,0-1.31,0-2q0-3.95,0-7.77c0-5.09,0-10,0-14.69,0-2.34,0-4.62,0-6.84,0-1.11,0-2.2,0-3.28,0-.53,0-1.09,0-1.58a3.26,3.26,0,0,0-.45-1.39,3.33,3.33,0,0,0-2.29-1.6,10,10,0,0,0-1.46-.06H87.88l-5.56,0-9.55,0-3.92,0a16.83,16.83,0,0,0-3.26.13,6,6,0,0,0-3.66,2.43A10.54,10.54,0,0,0,61.17,156.52Z" style="fill: rgb(224, 224, 224); transform-origin: 71.9166px 174.241px;" id="elzqgzil8gcz" class="animable"></path><path d="M171.81,148.49c0,.15-28.92.27-64.58.27s-64.59-.12-64.59-.27,28.91-.26,64.59-.26S171.81,148.35,171.81,148.49Z" style="fill: rgb(224, 224, 224); transform-origin: 107.225px 148.495px;" id="elcf5k9k91lj6" class="animable"></path><path d="M103.49,226.34c-.15,0-.26-17.34-.26-38.73s.11-38.74.26-38.74.26,17.34.26,38.74S103.63,226.34,103.49,226.34Z" style="fill: rgb(224, 224, 224); transform-origin: 103.49px 187.605px;" id="ellrx0x6f3a5h" class="animable"></path><path d="M90.24,207.45a3.42,3.42,0,0,0,1.47-.59,2.44,2.44,0,0,0,.91-1.53,2.62,2.62,0,0,0-.63-2.21,2.33,2.33,0,0,0-1.16-.67,7,7,0,0,0-1.54-.06l-3.53,0-8.09,0a2.39,2.39,0,0,0-.1,4.77l6.59.06,4.45.09a9.22,9.22,0,0,1,1.63.1,9.22,9.22,0,0,1-1.63.1l-4.45.08-6.61.05a2.81,2.81,0,0,1-2.7-2.78,2.94,2.94,0,0,1,.74-2.07,2.85,2.85,0,0,1,2.08-.92l8.09,0,3.53,0a7.63,7.63,0,0,1,1.64.11,2.75,2.75,0,0,1,1.33.81,2.89,2.89,0,0,1,.64,2.52A2.58,2.58,0,0,1,91.83,207a2.41,2.41,0,0,1-1.16.44A1,1,0,0,1,90.24,207.45Z" style="fill: rgb(224, 224, 224); transform-origin: 83.908px 204.752px;" id="el0b1eopxxqumr" class="animable"></path><path d="M39.55,279.88a1.35,1.35,0,0,1,0-.35c0-.25,0-.58,0-1,0-.92,0-2.22,0-3.88,0-3.41-.05-8.29-.08-14.3,0-12.1,0-28.76-.08-47.16,0-4,0-7.93,0-11.69v-.07c4.22-15,7.94-28.28,10.61-37.78,1.35-4.71,2.43-8.49,3.19-11.13.37-1.28.67-2.28.88-3,.09-.32.17-.57.23-.77a1.4,1.4,0,0,1,.1-.26,1,1,0,0,1,0,.27l-.19.79c-.19.72-.46,1.72-.8,3l-3,11.17L39.8,201.55v11.63c0,18.4-.05,35.06-.07,47.16,0,6-.07,10.89-.09,14.3,0,1.66,0,3,0,3.88,0,.43,0,.76,0,1A1.6,1.6,0,0,1,39.55,279.88Z" style="fill: rgb(224, 224, 224); transform-origin: 46.8996px 214.185px;" id="elhalvuywu7s4" class="animable"></path><rect x="19.75" y="267.25" width="46.66" height="14.06" rx="6.82" style="fill: rgb(224, 224, 224); transform-origin: 43.08px 274.28px;" id="eljpz9zlymk6" class="animable"></rect><rect x="112.14" y="152.45" width="44.3" height="44.3" rx="13.17" style="fill: rgb(224, 224, 224); transform-origin: 134.29px 174.6px;" id="el2lqqsz9pkir" class="animable"></rect><rect x="171.22" y="215.68" width="48.18" height="52.35" style="fill: rgb(235, 235, 235); transform-origin: 195.31px 241.855px;" id="elmdxknlvly5" class="animable"></rect><rect x="216.88" y="203.83" width="77.93" height="64.21" rx="7.37" style="fill: rgb(224, 224, 224); transform-origin: 255.845px 235.935px;" id="el7h65zzf9zpd" class="animable"></rect><rect x="222.23" y="208.75" width="65.91" height="58.72" rx="9.33" style="fill: rgb(245, 245, 245); transform-origin: 255.185px 238.11px;" id="elmkx82wm9kmf" class="animable"></rect><rect x="231.39" y="223.32" width="5.68" height="13.73" rx="2.76" style="fill: rgb(235, 235, 235); transform-origin: 234.23px 230.185px;" id="elmzfr4qv2puc" class="animable"></rect><rect x="240.94" y="223.32" width="5.68" height="13.73" rx="2.76" style="fill: rgb(235, 235, 235); transform-origin: 243.78px 230.185px;" id="elp6lkqncxxb" class="animable"></rect><rect x="250.49" y="223.32" width="5.68" height="13.73" rx="2.76" style="fill: rgb(235, 235, 235); transform-origin: 253.33px 230.185px;" id="elgtp0n4qxrnv" class="animable"></rect><g id="el9he7bylmet"><circle cx="271.85" cy="229.2" r="9.17" style="fill: rgb(224, 224, 224); transform-origin: 271.85px 229.2px; transform: rotate(-76.77deg);" class="animable" id="elvfrdi7wguki"></circle></g><path d="M241.48,252.89a5.46,5.46,0,1,1-5.45-5.46A5.45,5.45,0,0,1,241.48,252.89Z" style="fill: rgb(224, 224, 224); transform-origin: 236.02px 252.89px;" id="elfchw9r6osem" class="animable"></path><circle cx="253.88" cy="252.89" r="5.46" style="fill: rgb(224, 224, 224); transform-origin: 253.88px 252.89px;" id="el96wozg30ibh" class="animable"></circle><path d="M277.18,252.89a5.46,5.46,0,1,1-5.46-5.46A5.45,5.45,0,0,1,277.18,252.89Z" style="fill: rgb(224, 224, 224); transform-origin: 271.72px 252.89px;" id="eln9s2wwemlrd" class="animable"></path><path d="M277,229.2a5.16,5.16,0,1,1-5.16-5.16A5.16,5.16,0,0,1,277,229.2Z" style="fill: rgb(245, 245, 245); transform-origin: 271.84px 229.2px;" id="elcisooun4c6u" class="animable"></path><path d="M311.83,201.59H470.66a0,0,0,0,1,0,0v13a0,0,0,0,1,0,0H311.83a6.3,6.3,0,0,1-6.3-6.3v-.38A6.3,6.3,0,0,1,311.83,201.59Z" style="fill: rgb(224, 224, 224); transform-origin: 388.095px 208.09px;" id="el2nex98lbxcy" class="animable"></path><path d="M322.08,247.16c-.06,0,0-.66-.33-1.77a7.37,7.37,0,0,0-2.7-3.95,7.2,7.2,0,0,0-6.78-1A7,7,0,0,0,309,243a7.11,7.11,0,0,0,0,8.42,7.13,7.13,0,0,0,3.31,2.5,7.27,7.27,0,0,0,3.75.33,7.33,7.33,0,0,0,5.73-5.26c.3-1.12.27-1.78.33-1.78a2,2,0,0,1,0,.48,6.34,6.34,0,0,1-.17,1.35,7.44,7.44,0,0,1-5.84,5.63,7.57,7.57,0,0,1-7.55-3,7.57,7.57,0,0,1,0-9,7.52,7.52,0,0,1,3.56-2.64,7.5,7.5,0,0,1,7.17,1.14,7.33,7.33,0,0,1,2.66,4.19,6.34,6.34,0,0,1,.17,1.35A1.9,1.9,0,0,1,322.08,247.16Z" style="fill: rgb(224, 224, 224); transform-origin: 314.606px 247.193px;" id="elqs60xxt6ktt" class="animable"></path><rect x="412.86" y="266.56" width="62.41" height="15.97" rx="7.75" style="fill: rgb(224, 224, 224); transform-origin: 444.065px 274.545px;" id="el6fswxmyrp5m" class="animable"></rect><g id="eltrcanrzuuc"><circle cx="373.79" cy="276.24" r="34.38" style="fill: rgb(224, 224, 224); transform-origin: 373.79px 276.24px; transform: rotate(-1.79deg);" class="animable" id="el7cyfkowevhv"></circle></g><path d="M339.42,275.65s0,.06,0,.09a34.38,34.38,0,1,0,68.75,1v-.09Z" style="fill: rgb(224, 224, 224); transform-origin: 373.79px 293.288px;" id="elaygydpfrlyo" class="animable"></path><path d="M349.65,275.89a24.14,24.14,0,1,0,24.49-23.79A24.14,24.14,0,0,0,349.65,275.89Z" style="fill: rgb(250, 250, 250); transform-origin: 373.788px 276.237px;" id="el2x13mpsvnni" class="animable"></path><path d="M374.14,252.1a24.15,24.15,0,0,0-24.49,23.79l48.27.69A24.15,24.15,0,0,0,374.14,252.1Z" style="fill: rgb(245, 245, 245); transform-origin: 373.786px 264.339px;" id="elykhdtwockkd" class="animable"></path><path d="M359.09,276A14.7,14.7,0,1,0,374,261.54,14.71,14.71,0,0,0,359.09,276Z" style="fill: rgb(224, 224, 224); transform-origin: 373.788px 276.239px;" id="elv8qux7tq4hn" class="animable"></path><g id="elif2nrkpqqp"><circle cx="106.78" cy="276.24" r="34.38" style="fill: rgb(224, 224, 224); transform-origin: 106.78px 276.24px; transform: rotate(-1.84deg);" class="animable" id="elk3s61vuzl3c"></circle></g><path d="M72.41,275.65v.09a34.37,34.37,0,1,0,68.74,1,.27.27,0,0,0,0-.09Z" style="fill: rgb(224, 224, 224); transform-origin: 106.78px 293.132px;" id="elkupo3fi9snp" class="animable"></path><path d="M82.65,275.89a24.13,24.13,0,1,0,24.48-23.79A24.13,24.13,0,0,0,82.65,275.89Z" style="fill: rgb(250, 250, 250); transform-origin: 106.778px 276.227px;" id="el5yo6u84bu64" class="animable"></path><path d="M107.13,252.1a24.14,24.14,0,0,0-24.48,23.79l48.26.69A24.13,24.13,0,0,0,107.13,252.1Z" style="fill: rgb(245, 245, 245); transform-origin: 106.781px 264.339px;" id="eluh2i3is9mgr" class="animable"></path><path d="M92.08,276A14.7,14.7,0,1,0,107,261.54,14.71,14.71,0,0,0,92.08,276Z" style="fill: rgb(224, 224, 224); transform-origin: 106.778px 276.238px;" id="elkyg8vto3o2k" class="animable"></path><path d="M146.23,267.25H333.4a0,0,0,0,1,0,0v8.48a5.58,5.58,0,0,1-5.58,5.58H158.22a12,12,0,0,1-12-12v-2.07A0,0,0,0,1,146.23,267.25Z" style="fill: rgb(224, 224, 224); transform-origin: 239.81px 274.275px;" id="el6zehkugqdfw" class="animable"></path><rect x="202.62" y="161.84" width="259.95" height="7.27" rx="3.53" style="fill: rgb(224, 224, 224); transform-origin: 332.595px 165.475px;" id="elsdvu7b2ahz" class="animable"></rect><rect x="202.62" y="189.29" width="259.95" height="7.27" rx="3.53" style="fill: rgb(224, 224, 224); transform-origin: 332.595px 192.925px;" id="elaw899vffup" class="animable"></rect><rect x="214.79" y="165.48" width="5.03" height="24.73" style="fill: rgb(224, 224, 224); transform-origin: 217.305px 177.845px;" id="eljgikkq27akb" class="animable"></rect><rect x="235.74" y="165.48" width="5.03" height="24.73" style="fill: rgb(224, 224, 224); transform-origin: 238.255px 177.845px;" id="elvki9p20qhhg" class="animable"></rect><rect x="256.69" y="165.48" width="5.03" height="24.73" style="fill: rgb(224, 224, 224); transform-origin: 259.205px 177.845px;" id="eluyj4hfh8yqq" class="animable"></rect><rect x="277.64" y="165.48" width="5.03" height="24.73" style="fill: rgb(224, 224, 224); transform-origin: 280.155px 177.845px;" id="eluno51ocfoa" class="animable"></rect><rect x="298.59" y="165.48" width="5.03" height="24.73" style="fill: rgb(224, 224, 224); transform-origin: 301.105px 177.845px;" id="ely27dywp9k1j" class="animable"></rect><rect x="319.54" y="165.48" width="5.03" height="24.73" style="fill: rgb(224, 224, 224); transform-origin: 322.055px 177.845px;" id="eltxs3tizibw" class="animable"></rect><rect x="340.49" y="165.48" width="5.03" height="24.73" style="fill: rgb(224, 224, 224); transform-origin: 343.005px 177.845px;" id="elcqrmw2illam" class="animable"></rect><rect x="361.44" y="165.48" width="5.03" height="24.73" style="fill: rgb(224, 224, 224); transform-origin: 363.955px 177.845px;" id="elcv085m1k8yu" class="animable"></rect><rect x="382.39" y="165.48" width="5.03" height="24.73" style="fill: rgb(224, 224, 224); transform-origin: 384.905px 177.845px;" id="elwpr7qp535hi" class="animable"></rect><rect x="402.28" y="165.48" width="5.03" height="24.73" style="fill: rgb(224, 224, 224); transform-origin: 404.795px 177.845px;" id="eliotsj8ghks" class="animable"></rect><rect x="422.16" y="165.48" width="5.03" height="24.73" style="fill: rgb(224, 224, 224); transform-origin: 424.675px 177.845px;" id="el94o3nrxg6tw" class="animable"></rect><rect x="442.04" y="165.48" width="5.03" height="24.73" style="fill: rgb(224, 224, 224); transform-origin: 444.555px 177.845px;" id="elkn3egx9l4f" class="animable"></rect><path d="M153.88,268s0-.11-.11-.33-.16-.58-.27-1-.25-1-.45-1.62-.46-1.36-.73-2.17-.68-1.7-1.06-2.67-.92-2-1.43-3.1a63.15,63.15,0,0,0-4.27-7.14,56.43,56.43,0,0,0-15.21-15.19,38.7,38.7,0,0,0-5.47-3,64.41,64.41,0,0,0-6.13-2.24,56.83,56.83,0,0,0-6.54-1.64,50.4,50.4,0,0,0-6.9-.8,44.31,44.31,0,0,0-13.56,1.41,43.3,43.3,0,0,0-11.63,5.13,53.91,53.91,0,0,0-19.51,22.21c-.49,1.12-1,2.16-1.32,3.14s-.69,1.89-.93,2.72-.43,1.56-.61,2.21-.24,1.2-.34,1.64-.16.76-.21,1a1.82,1.82,0,0,1-.09.34,1.33,1.33,0,0,1,0-.35c0-.26.09-.6.16-1s.15-1,.29-1.66.35-1.39.56-2.23.57-1.74.89-2.74.82-2.05,1.29-3.18a53,53,0,0,1,4.1-7.29,54,54,0,0,1,15.43-15.21,43.59,43.59,0,0,1,11.74-5.21,44.53,44.53,0,0,1,13.73-1.45,51.29,51.29,0,0,1,7,.82,60.82,60.82,0,0,1,6.61,1.66c2.13.66,4.18,1.45,6.16,2.28a38.64,38.64,0,0,1,5.54,3,56.1,56.1,0,0,1,15.25,15.39,60.61,60.61,0,0,1,4.23,7.21c.5,1.12,1,2.15,1.4,3.13s.75,1.88,1,2.7l.69,2.2c.18.64.29,1.19.4,1.63s.17.76.22,1A1.45,1.45,0,0,1,153.88,268Z" style="fill: rgb(224, 224, 224); transform-origin: 105.489px 247.262px;" id="elfk6tzqfzope" class="animable"></path><path d="M61,173.63H59.5a4.45,4.45,0,0,1-4.45-4.45V148.49h3v20.69a1.45,1.45,0,0,0,1.45,1.45H61Z" style="fill: rgb(224, 224, 224); transform-origin: 58.025px 161.06px;" id="elzky7lowcr2m" class="animable"></path><rect x="21.69" y="241.86" width="17.86" height="11.84" style="fill: rgb(224, 224, 224); transform-origin: 30.62px 247.78px;" id="elh1us2mbb6n" class="animable"></rect><path d="M46.94,216.79c-.43.43,0,36.91,0,36.91H61.81s10.41-22.32,34-26.27V216.79Z" style="fill: rgb(224, 224, 224); transform-origin: 71.2794px 235.245px;" id="els41qe4j27ks" class="animable"></path><rect x="61" y="156.42" width="12.06" height="26.86" rx="5.85" style="fill: rgb(245, 245, 245); transform-origin: 67.03px 169.85px;" id="el7jxbznpvizt" class="animable"></rect><path d="M175.58,266.92c-.14,0-.26-11.48-.26-25.64s.12-25.65.26-25.65.26,11.48.26,25.65S175.73,266.92,175.58,266.92Z" style="fill: rgb(224, 224, 224); transform-origin: 175.58px 241.275px;" id="eldyxeggicekw" class="animable"></path><path d="M184.75,266.92c-.14,0-.26-11.48-.26-25.64s.12-25.65.26-25.65.26,11.48.26,25.65S184.89,266.92,184.75,266.92Z" style="fill: rgb(224, 224, 224); transform-origin: 184.75px 241.275px;" id="elrozb11qbahq" class="animable"></path><path d="M193.92,266.92c-.15,0-.26-11.48-.26-25.64s.11-25.65.26-25.65.26,11.48.26,25.65S194.06,266.92,193.92,266.92Z" style="fill: rgb(224, 224, 224); transform-origin: 193.92px 241.275px;" id="eln6bgjs5pj3l" class="animable"></path><path d="M203.09,266.92c-.15,0-.26-11.48-.26-25.64s.11-25.65.26-25.65.26,11.48.26,25.65S203.23,266.92,203.09,266.92Z" style="fill: rgb(224, 224, 224); transform-origin: 203.09px 241.275px;" id="eltvfaipo9k0a" class="animable"></path><path d="M212.25,266.92c-.14,0-.26-11.48-.26-25.64s.12-25.65.26-25.65.26,11.48.26,25.65S212.4,266.92,212.25,266.92Z" style="fill: rgb(224, 224, 224); transform-origin: 212.25px 241.275px;" id="elrum4hqt9usr" class="animable"></path><circle cx="234.16" cy="216.83" r="1.87" style="fill: rgb(224, 224, 224); transform-origin: 234.16px 216.83px;" id="eluqqtbfbuoi" class="animable"></circle><circle cx="239.3" cy="216.83" r="1.87" style="fill: rgb(224, 224, 224); transform-origin: 239.3px 216.83px;" id="el937v6cvnhyn" class="animable"></circle><path d="M246.31,216.83a1.87,1.87,0,1,1-1.87-1.87A1.87,1.87,0,0,1,246.31,216.83Z" style="fill: rgb(224, 224, 224); transform-origin: 244.44px 216.83px;" id="el3ak0luttisb" class="animable"></path><path d="M371,237.08c-.15,0-.26-4.8-.26-10.71s.11-10.7.26-10.7.26,4.79.26,10.7S371.11,237.08,371,237.08Z" style="fill: rgb(224, 224, 224); transform-origin: 371px 226.375px;" id="ellqtatl1eh9" class="animable"></path><path d="M470.66,214.57s0-.29,0-.86,0-1.4,0-2.49c0-2.19,0-5.42-.05-9.63l.1.1-63.28.12-46.34,0H311.69a6,6,0,0,0-3.11.95,6.07,6.07,0,0,0-2.54,3.4,6.44,6.44,0,0,0-.24,2.15,5.77,5.77,0,0,0,.41,2.1,6,6,0,0,0,4.8,3.79,19.5,19.5,0,0,0,2.18.06h17.4l32.88,0,55.72.07,37.62.08,10.25,0,2.67,0,.93,0-.89,0-2.64,0-10.19,0-37.56.08-55.79.07-33,0H313.19a19.05,19.05,0,0,1-2.25-.07,6.31,6.31,0,0,1-2.19-.7,6.59,6.59,0,0,1-3-3.41,6.13,6.13,0,0,1-.45-2.28,6.76,6.76,0,0,1,.26-2.31,6.55,6.55,0,0,1,6.14-4.72H361l46.34,0,63.28.12h.09v.09c0,4.23,0,7.48-.05,9.69,0,1.08,0,1.9,0,2.47S470.66,214.57,470.66,214.57Z" style="fill: rgb(224, 224, 224); transform-origin: 387.999px 207.82px;" id="elqvj3b0xm9d" class="animable"></path><path d="M480.32,310.66c0,.15-101.64.26-227,.26s-227-.11-227-.26,101.61-.26,227-.26S480.32,310.52,480.32,310.66Z" style="fill: rgb(224, 224, 224); transform-origin: 253.32px 310.66px;" id="el5fgx4jxx4is" class="animable"></path><path d="M147.76,369.81c0,.15-17.91.26-40,.26s-40-.11-40-.26,17.91-.26,40-.26S147.76,369.67,147.76,369.81Z" style="fill: rgb(224, 224, 224); transform-origin: 107.76px 369.81px;" id="el4qudvdhl2x" class="animable"></path><path d="M327.5,369.81c0,.15-17.91.26-40,.26s-40-.11-40-.26,17.91-.26,40-.26S327.5,369.67,327.5,369.81Z" style="fill: rgb(224, 224, 224); transform-origin: 287.5px 369.81px;" id="elhvi84ifeslw" class="animable"></path></g><g id="freepik--Floor--inject-39" class="animable" style="transform-origin: 250px 462.41px;"><path d="M480.14,456.6c0,.15-103,.26-230.13.26s-230.15-.11-230.15-.26,103-.26,230.15-.26S480.14,456.46,480.14,456.6Z" style="fill: rgb(38, 50, 56); transform-origin: 250px 456.6px;" id="el70pkoiglkwv" class="animable"></path><path d="M480.14,468.2c0,.14-103,.26-230.13.26s-230.15-.12-230.15-.26,103-.26,230.15-.26S480.14,468.05,480.14,468.2Z" style="fill: rgb(38, 50, 56); transform-origin: 250px 468.2px;" id="el9meer1t9kna" class="animable"></path><path d="M76.87,468.44a63.49,63.49,0,0,1,0-11.48,63.49,63.49,0,0,1,0,11.48Z" style="fill: rgb(38, 50, 56); transform-origin: 76.87px 462.7px;" id="el830815orlqs" class="animable"></path><path d="M122.27,468.44a63.49,63.49,0,0,1,0-11.48,63.49,63.49,0,0,1,0,11.48Z" style="fill: rgb(38, 50, 56); transform-origin: 122.27px 462.7px;" id="ell082ry0ca59" class="animable"></path><path d="M167.68,468.44a63.49,63.49,0,0,1,0-11.48,63.49,63.49,0,0,1,0,11.48Z" style="fill: rgb(38, 50, 56); transform-origin: 167.68px 462.7px;" id="elbjxvshz6vrq" class="animable"></path><path d="M213.09,468.44a63.49,63.49,0,0,1,0-11.48,63.49,63.49,0,0,1,0,11.48Z" style="fill: rgb(38, 50, 56); transform-origin: 213.09px 462.7px;" id="elf8arlixja3j" class="animable"></path><path d="M258.5,468.44a63.49,63.49,0,0,1,0-11.48,63.49,63.49,0,0,1,0,11.48Z" style="fill: rgb(38, 50, 56); transform-origin: 258.5px 462.7px;" id="elv8ldfbra449" class="animable"></path><path d="M303.91,468.44a63.49,63.49,0,0,1,0-11.48,63.49,63.49,0,0,1,0,11.48Z" style="fill: rgb(38, 50, 56); transform-origin: 303.91px 462.7px;" id="elrsb8vmwxa4d" class="animable"></path><path d="M349.31,468.44a63.49,63.49,0,0,1,0-11.48,63.49,63.49,0,0,1,0,11.48Z" style="fill: rgb(38, 50, 56); transform-origin: 349.31px 462.7px;" id="el7v6oz49cda" class="animable"></path><path d="M394.72,468.44a63.49,63.49,0,0,1,0-11.48,63.49,63.49,0,0,1,0,11.48Z" style="fill: rgb(38, 50, 56); transform-origin: 394.72px 462.7px;" id="el1qkfut18pcp" class="animable"></path><path d="M440.13,468.44a63.49,63.49,0,0,1,0-11.48,63.49,63.49,0,0,1,0,11.48Z" style="fill: rgb(38, 50, 56); transform-origin: 440.13px 462.7px;" id="eljoimzxsn41" class="animable"></path><path d="M31,468.44A63.49,63.49,0,0,1,31,457a63.49,63.49,0,0,1,0,11.48Z" style="fill: rgb(38, 50, 56); transform-origin: 31.0009px 462.74px;" id="eloneqdsomhl" class="animable"></path></g><g id="freepik--Hydrant--inject-39" class="animable" style="transform-origin: 395.625px 388.7px;"><polygon points="416.18 371.96 427.66 373.85 427.66 392.36 416.18 394.58 416.18 371.96" style="fill: rgb(69, 90, 100); transform-origin: 421.92px 383.27px;" id="elvn3jen97jt" class="animable"></polygon><rect x="427.25" y="371.62" width="2.91" height="22.62" rx="1.33" style="fill: rgb(224, 224, 224); transform-origin: 428.705px 382.93px;" id="els8t6em291jq" class="animable"></rect><path d="M429.58,377.7h.86a4,4,0,0,1,4,4v.78a4,4,0,0,1-4,4h-.86a0,0,0,0,1,0,0V377.7A0,0,0,0,1,429.58,377.7Z" style="fill: rgb(224, 224, 224); transform-origin: 432.01px 382.09px;" id="el3hr2uqn6mhu" class="animable"></path><path d="M427.17,392.43a74.37,74.37,0,0,1-.29-9.27,74.37,74.37,0,0,1,.29-9.27,75.66,75.66,0,0,1,.28,9.27A75.66,75.66,0,0,1,427.17,392.43Z" style="fill: rgb(38, 50, 56); transform-origin: 427.165px 383.16px;" id="el6zhwzwva7wk" class="animable"></path><path d="M430,392.56a74.37,74.37,0,0,1-.29-9.27A74.47,74.47,0,0,1,430,374a74.47,74.47,0,0,1,.29,9.28A74.37,74.37,0,0,1,430,392.56Z" style="fill: rgb(38, 50, 56); transform-origin: 430px 383.28px;" id="elq9tau6lf39" class="animable"></path><path d="M375,444.2v-94a20.61,20.61,0,0,1,20.61-20.61h0a20.61,20.61,0,0,1,20.61,20.61v94Z" style="fill: rgb(69, 90, 100); transform-origin: 395.61px 386.895px;" id="elz0efgca7kv" class="animable"></path><rect x="368.47" y="352.47" width="54.61" height="11.39" rx="5.19" style="fill: rgb(69, 90, 100); transform-origin: 395.775px 358.165px;" id="el9qgthrh2hn" class="animable"></rect><path d="M389.21,331.11l0-.82a5.91,5.91,0,0,1,5.54-6.24l1.61-.08a5.9,5.9,0,0,1,6.14,5.65l.08,1.41Z" style="fill: rgb(69, 90, 100); transform-origin: 395.89px 327.537px;" id="ellgpkis99h5q" class="animable"></path><path d="M395.33,321.68h1a1.44,1.44,0,0,1,1.44,1.44V325a0,0,0,0,1,0,0h-3.91a0,0,0,0,1,0,0v-1.86A1.44,1.44,0,0,1,395.33,321.68Z" style="fill: rgb(69, 90, 100); transform-origin: 395.815px 323.34px;" id="elew8mz7oee3" class="animable"></path><path d="M416.18,352.29c0,.16-9.21.29-20.57.29s-20.57-.13-20.57-.29,9.21-.28,20.57-.28S416.18,352.13,416.18,352.29Z" style="fill: rgb(38, 50, 56); transform-origin: 395.61px 352.295px;" id="eldtm23803j4d" class="animable"></path><path d="M389.78,331.87c0,.09-1.18.58-3,1.58a20.76,20.76,0,0,0-6.32,5.1A18.05,18.05,0,0,0,377,345.9c-.45,2.05-.35,3.38-.45,3.38a2.48,2.48,0,0,1-.13-.93,12.72,12.72,0,0,1,.18-2.53,17,17,0,0,1,3.33-7.63,19.08,19.08,0,0,1,6.59-5.1,23.64,23.64,0,0,1,2.33-1A3.18,3.18,0,0,1,389.78,331.87Z" style="fill: rgb(250, 250, 250); transform-origin: 383.097px 340.575px;" id="ellqdpvdx5y9n" class="animable"></path><path d="M402.54,330.68c-.06.2-3-1-6.74-1s-6.67,1.18-6.73,1a6,6,0,0,1,1.87-.81,15.55,15.55,0,0,1,4.87-.74,16.92,16.92,0,0,1,4.86.8A5.91,5.91,0,0,1,402.54,330.68Z" style="fill: rgb(38, 50, 56); transform-origin: 395.805px 329.916px;" id="ele1ue2nvpitb" class="animable"></path><path d="M398.21,324.33c-.06.16-1-.12-2.21-.15s-2.16.2-2.21,0,.91-.65,2.23-.61S398.28,324.2,398.21,324.33Z" style="fill: rgb(38, 50, 56); transform-origin: 396.001px 323.973px;" id="elapdggbwocz" class="animable"></path><g id="elhmtqt389tcw"><g style="opacity: 0.3; transform-origin: 395.94px 385.74px;" class="animable" id="el77ne1mgxut"><g id="elqfxls16o11"><circle cx="395.94" cy="385.74" r="14.24" class="animable" style="transform-origin: 395.94px 385.74px; transform: rotate(-67.7deg);" id="elqj5vsgb2nc8"></circle></g></g></g><g id="eljbnsx9im8kp"><circle cx="395.94" cy="383.27" r="14.24" style="fill: rgb(245, 245, 245); transform-origin: 395.94px 383.27px; transform: rotate(-84.33deg);" class="animable" id="el39ov5g15j08"></circle></g><path d="M410.18,383.27a26.26,26.26,0,0,0-.55-3.45,14.21,14.21,0,0,0-5.2-7.71,14,14,0,0,0-13.25-2A13.94,13.94,0,0,0,384.7,375a13.91,13.91,0,0,0,0,16.5,14.05,14.05,0,0,0,6.48,4.88,14.11,14.11,0,0,0,18.45-9.68,26,26,0,0,0,.55-3.45,5.71,5.71,0,0,1,0,.91,6.85,6.85,0,0,1-.08,1.11,9.9,9.9,0,0,1-.27,1.49,14.13,14.13,0,0,1-5.16,8A14.37,14.37,0,0,1,391,396.89a14.36,14.36,0,0,1-6.75-5,14.42,14.42,0,0,1,0-17.16,14,14,0,0,1,3.07-3.08,13.63,13.63,0,0,1,3.68-2,14.52,14.52,0,0,1,7.61-.6,14.32,14.32,0,0,1,11.23,10.72,9.68,9.68,0,0,1,.27,1.49,6.67,6.67,0,0,1,.08,1.1A5.71,5.71,0,0,1,410.18,383.27Z" style="fill: rgb(38, 50, 56); transform-origin: 395.812px 383.273px;" id="elg0olt3erdrw" class="animable"></path><path d="M401.78,380.28a6.56,6.56,0,1,1-8.83-2.85A6.56,6.56,0,0,1,401.78,380.28Z" style="fill: rgb(224, 224, 224); transform-origin: 395.94px 383.269px;" id="elkkfjskrauv8" class="animable"></path><path d="M400.43,383.27a4.49,4.49,0,1,1-4.49-4.49A4.49,4.49,0,0,1,400.43,383.27Z" style="fill: rgb(245, 245, 245); transform-origin: 395.94px 383.27px;" id="ele6rdhyc1ykh" class="animable"></path><path d="M400.43,383.27c-.05,0-.05-.4-.25-1.07a4.42,4.42,0,0,0-1.65-2.33,4.24,4.24,0,1,0,0,6.81,4.43,4.43,0,0,0,1.65-2.34c.2-.67.2-1.07.25-1.07a2.53,2.53,0,0,1,0,1.13,4.52,4.52,0,0,1-1.62,2.6,4.68,4.68,0,0,1-4.46.74,4.74,4.74,0,0,1,0-8.93,4.68,4.68,0,0,1,4.46.73,4.51,4.51,0,0,1,1.62,2.61A2.49,2.49,0,0,1,400.43,383.27Z" style="fill: rgb(38, 50, 56); transform-origin: 395.847px 383.273px;" id="eltxhgf0n7gm" class="animable"></path><path d="M416.18,364c0,.16-9.31.29-20.78.29s-20.78-.13-20.78-.29,9.3-.28,20.78-.28S416.18,363.86,416.18,364Z" style="fill: rgb(38, 50, 56); transform-origin: 395.4px 364.005px;" id="elksqn2yzubu" class="animable"></path><path d="M374.62,353.76a11.92,11.92,0,0,1-1.34.36,5.07,5.07,0,0,0-3.59,4.86,10.27,10.27,0,0,1,.05,1.39c-.06,0-.36-.47-.45-1.38a4.89,4.89,0,0,1,3.88-5.26C374.07,353.55,374.63,353.7,374.62,353.76Z" style="fill: rgb(250, 250, 250); transform-origin: 371.944px 357.007px;" id="ely8s2xi9j7bo" class="animable"></path><path d="M389.35,372.49c0,.09-.94.58-2.23,1.75a12.19,12.19,0,0,0-3.63,12.29c.44,1.68,1,2.63.91,2.68s-.2-.2-.45-.63a9.53,9.53,0,0,1-.85-1.94,11.7,11.7,0,0,1,3.76-12.7,9.91,9.91,0,0,1,1.76-1.17A2,2,0,0,1,389.35,372.49Z" style="fill: rgb(250, 250, 250); transform-origin: 385.939px 380.853px;" id="elja1ivtflw9r" class="animable"></path><path d="M416.18,402.78c-.16,0-.29-8.74-.29-19.51s.13-19.5.29-19.5.28,8.73.28,19.5S416.34,402.78,416.18,402.78Z" style="fill: rgb(38, 50, 56); transform-origin: 416.175px 383.275px;" id="el75psd8rzw2s" class="animable"></path><path d="M362.52,455.72v-4.55a3.42,3.42,0,0,1,3.41-3.42h0v-1.46a6.52,6.52,0,0,1,6.51-6.51h46.19c3.6,0,6.46,4.06,6.46,7.66h1.64c1.89,0,3.42.38,3.42,2.27v6Z" style="fill: rgb(69, 90, 100); transform-origin: 396.335px 447.75px;" id="el5813dfyvg74" class="animable"></path><polygon points="375.05 394.08 363.56 392.19 363.56 373.68 375.05 371.46 375.05 394.08" style="fill: rgb(69, 90, 100); transform-origin: 369.305px 382.77px;" id="elrmy740nskk" class="animable"></polygon><g id="el3niimrh8pi6"><rect x="361.06" y="371.79" width="2.91" height="22.62" rx="1.33" style="fill: rgb(224, 224, 224); transform-origin: 362.515px 383.1px; transform: rotate(180deg);" class="animable" id="elomusquab1mr"></rect></g><g id="elr70r31ly21s"><path d="M356.81,379.6h.86a4,4,0,0,1,4,4v.78a4,4,0,0,1-4,4h-.86a0,0,0,0,1,0,0V379.6A0,0,0,0,1,356.81,379.6Z" style="fill: rgb(224, 224, 224); transform-origin: 359.24px 383.99px; transform: rotate(180deg);" class="animable" id="el0y1bp960nlvf"></path></g><path d="M364.05,373.61a74.37,74.37,0,0,1,.29,9.27,74.37,74.37,0,0,1-.29,9.27,78.14,78.14,0,0,1-.28-9.27A78.14,78.14,0,0,1,364.05,373.61Z" style="fill: rgb(38, 50, 56); transform-origin: 364.056px 382.88px;" id="eln80kxd38ahh" class="animable"></path><path d="M361.21,373.48a74.37,74.37,0,0,1,.29,9.27,74.47,74.47,0,0,1-.29,9.28,75.76,75.76,0,0,1-.28-9.28A75.66,75.66,0,0,1,361.21,373.48Z" style="fill: rgb(38, 50, 56); transform-origin: 361.215px 382.755px;" id="els948a8mboba" class="animable"></path><path d="M375.05,414.28c-.16,0-.29-11-.29-24.65s.13-24.65.29-24.65.28,11,.28,24.65S375.21,414.28,375.05,414.28Z" style="fill: rgb(38, 50, 56); transform-origin: 375.045px 389.63px;" id="elvvr90r9pwxf" class="animable"></path><path d="M416.92,439.78c0,.15-9.33.26-20.84.26s-20.84-.11-20.84-.26,9.33-.26,20.84-.26S416.92,439.64,416.92,439.78Z" style="fill: rgb(38, 50, 56); transform-origin: 396.08px 439.78px;" id="elvzbav5nee28" class="animable"></path><path d="M427.3,447.75c0,.15-13.87.26-31,.26s-31-.11-31-.26,13.86-.26,31-.26S427.3,447.61,427.3,447.75Z" style="fill: rgb(38, 50, 56); transform-origin: 396.3px 447.75px;" id="elahu5ye7iwt" class="animable"></path></g><g id="freepik--Plants--inject-39" class="animable" style="transform-origin: 84.1062px 433.6px;"><path d="M36.44,422.58a9.39,9.39,0,0,1,1.08,1.08c.68.71,1.62,1.79,2.72,3.16a72.65,72.65,0,0,1,7.55,11.48A73.81,73.81,0,0,1,53,451c.51,1.69.87,3.06,1.08,4a9.71,9.71,0,0,1,.28,1.5,7.5,7.5,0,0,1-.48-1.45c-.26-.95-.68-2.3-1.23-4a84.66,84.66,0,0,0-5.36-12.58A84.76,84.76,0,0,0,40,427c-1.06-1.39-2-2.5-2.58-3.25A7.11,7.11,0,0,1,36.44,422.58Z" style="fill: rgb(38, 50, 56); transform-origin: 45.4px 439.54px;" id="elijvboe8bqsi" class="animable"></path><path d="M58.21,412.78a9.55,9.55,0,0,1,0,1.73c-.06,1.2-.13,2.78-.22,4.7-.16,4-.24,9.46,0,15.51s.77,11.52,1.24,15.46c.25,1.9.45,3.48.6,4.67a10.7,10.7,0,0,1,.17,1.72,11.51,11.51,0,0,1-.37-1.69c-.22-1.09-.48-2.68-.76-4.65a153.47,153.47,0,0,1-1.4-15.49c-.24-6.07-.1-11.57.15-15.55.13-2,.26-3.59.39-4.69A13.34,13.34,0,0,1,58.21,412.78Z" style="fill: rgb(38, 50, 56); transform-origin: 58.673px 434.675px;" id="eldenmfgo1l2t" class="animable"></path><path d="M68.32,435.4a22,22,0,0,1-.72,3.08c-.47,1.89-1.08,4.51-1.62,7.44s-.87,5.6-1.09,7.53a23.16,23.16,0,0,1-.41,3.14,16,16,0,0,1,0-3.17,70.52,70.52,0,0,1,1-7.59,69.72,69.72,0,0,1,1.78-7.45A16.6,16.6,0,0,1,68.32,435.4Z" style="fill: rgb(38, 50, 56); transform-origin: 66.3606px 445.995px;" id="elvra90pm0ck" class="animable"></path><path d="M115,410.66a8.58,8.58,0,0,1,4.46,5,15.22,15.22,0,0,1,.59,6.84c-.5,4.44-3,8.92-5.74,12.47-3.74-3.26-4.6-8.95-4.85-11.87-.4-4.6,1.66-13.17,5.54-12.48" style="fill: #FF1F00; transform-origin: 114.806px 422.775px;" id="elhqfsdh1eb4h" class="animable"></path><path d="M118.62,442.33a7.34,7.34,0,0,1,2.38-7,9.73,9.73,0,0,1,7.18-2.25,4.11,4.11,0,0,1,3.16,1.42,3.14,3.14,0,0,1,0,3.18A6.3,6.3,0,0,1,129,440c-3.24,2-6.74,3.4-10.41,2.3" style="fill: #FF1F00; transform-origin: 125.123px 437.862px;" id="el0gtzxeq0m0tl" class="animable"></path><path d="M113.83,455.94A5.39,5.39,0,0,1,114,455c.11-.64.26-1.47.45-2.47a25.78,25.78,0,0,1,2.54-7.87,15.71,15.71,0,0,1,5.65-6,10.3,10.3,0,0,1,2.3-1,6.54,6.54,0,0,1,.67-.17.71.71,0,0,1,.24,0,14.56,14.56,0,0,0-8.58,7.38,27.63,27.63,0,0,0-2.6,7.76c-.23,1-.41,1.87-.55,2.45A4.7,4.7,0,0,1,113.83,455.94Z" style="fill: rgb(38, 50, 56); transform-origin: 119.84px 446.71px;" id="el9ysoicrc98f" class="animable"></path><path d="M114,417.32a1.87,1.87,0,0,1,0,.4c0,.29,0,.67.07,1.14,0,1,.11,2.43.16,4.21.12,3.56.21,8.47.19,13.9s-.16,10.35-.31,13.9c-.07,1.78-.14,3.22-.2,4.21,0,.47-.06.85-.08,1.14a1.73,1.73,0,0,1,0,.4,2.47,2.47,0,0,1,0-.4c0-.29,0-.67,0-1.14,0-1,.06-2.47.11-4.21.08-3.56.18-8.47.2-13.9s0-10.34-.08-13.89c0-1.75,0-3.18-.07-4.21,0-.47,0-.85,0-1.15A3.15,3.15,0,0,1,114,417.32Z" style="fill: rgb(38, 50, 56); transform-origin: 114.122px 436.97px;" id="ellr6tduapfc" class="animable"></path><path d="M112.16,445a17.17,17.17,0,0,0-9.37-12.57c-1.25-.6-2.88-1-3.91-.06s-.8,2.6-.29,3.89a14.65,14.65,0,0,0,13.48,9.11" style="fill: #FF1F00; transform-origin: 105.159px 438.59px;" id="elk0ufqsqltp" class="animable"></path><path d="M103.39,436.67a4,4,0,0,1,.79.35,8,8,0,0,1,.9.47c.34.21.74.42,1.14.72a15.88,15.88,0,0,1,1.31,1c.46.36.91.8,1.39,1.26a19.9,19.9,0,0,1,2.64,3.39,18.87,18.87,0,0,1,1.73,3.94,15.43,15.43,0,0,1,.44,1.82,13.12,13.12,0,0,1,.23,1.62,13.34,13.34,0,0,1,.06,1.35,7.83,7.83,0,0,1,0,1,3.52,3.52,0,0,1-.1.86c-.07,0,.06-1.23-.16-3.2a15.39,15.39,0,0,0-.26-1.59,18.2,18.2,0,0,0-.46-1.79,19.58,19.58,0,0,0-1.73-3.85,20.14,20.14,0,0,0-2.58-3.35,15.55,15.55,0,0,0-1.35-1.26,14.44,14.44,0,0,0-1.26-1C104.48,437.25,103.36,436.73,103.39,436.67Z" style="fill: rgb(38, 50, 56); transform-origin: 108.713px 445.56px;" id="el44oz5nz67po" class="animable"></path></g><g id="freepik--Character--inject-39" class="animable animator-active" style="transform-origin: 214.52px 268.781px;"><path d="M202.16,420.27l1.19,23.5s-23.48,9.1-23.68,13.46l45.64-.67L225,419.87Z" style="fill: rgb(38, 50, 56); transform-origin: 202.49px 438.55px;" id="elzji9dnep4q" class="animable"></path><path d="M217.44,441.58a1.87,1.87,0,0,1,1.32,2.11,1.8,1.8,0,0,1-2.08,1.33,2,2,0,0,1-1.39-2.24,1.86,1.86,0,0,1,2.32-1.14" style="fill: rgb(224, 224, 224); transform-origin: 217.025px 443.301px;" id="el3ffaep6jx7a" class="animable"></path><path d="M225.31,456.56l-.18-3.7-43.69,2s-2,.91-1.77,2.34Z" style="fill: rgb(69, 90, 100); transform-origin: 202.481px 455.03px;" id="elyu2oj4riii" class="animable"></path><path d="M202.61,443.55c0,.22,1.13.3,2.23,1s1.71,1.63,1.91,1.54-.14-1.37-1.5-2.2S202.56,443.34,202.61,443.55Z" style="fill: rgb(255, 255, 255); transform-origin: 204.706px 444.713px;" id="elfk0upbs9pk7" class="animable"></path><path d="M197.85,445.6c0,.21.93.58,1.7,1.51s1,1.92,1.22,1.91.35-1.27-.63-2.41S197.85,445.38,197.85,445.6Z" style="fill: rgb(255, 255, 255); transform-origin: 199.388px 447.262px;" id="ellho2w8d8ze" class="animable"></path><path d="M195.22,451.37c.2,0,.49-1.08-.1-2.29s-1.64-1.68-1.73-1.5.57.83,1,1.84S195,451.35,195.22,451.37Z" style="fill: rgb(255, 255, 255); transform-origin: 194.426px 449.456px;" id="elkf0dnzuq0uc" class="animable"></path><path d="M202.93,438.16c.1.2,1.12-.12,2.38-.05s2.25.45,2.36.25-.84-1-2.33-1S202.82,438,202.93,438.16Z" style="fill: rgb(255, 255, 255); transform-origin: 205.3px 437.889px;" id="el91nl2rq0v7s" class="animable"></path><path d="M287.52,415.69,290.63,444l8.92,21.67a2.93,2.93,0,0,1-1.78,3.88h0a2.9,2.9,0,0,1-2.64-.41c-4.85-3.56-22.65-16.72-22.76-18.81-.13-2.41-5.27-29.62-5.27-29.62Z" style="fill: rgb(38, 50, 56); transform-origin: 283.433px 442.696px;" id="eluay7vlyitpe" class="animable"></path><path d="M297.77,469.53l-25.66-21.12.16,1.2a4.43,4.43,0,0,0,1.41,2.68c2.07,1.87,7.91,6.89,21.37,16.84a2.91,2.91,0,0,0,2.72.4Z" style="fill: rgb(69, 90, 100); transform-origin: 284.94px 459.056px;" id="elwxx8snl2lr" class="animable"></path><path d="M289.68,458.06c.17.06.61-1.51,2.18-2.53s3.16-.87,3.17-1-.37-.24-1-.25a4.65,4.65,0,0,0-4.13,2.77C289.6,457.62,289.61,458.05,289.68,458.06Z" style="fill: rgb(255, 255, 255); transform-origin: 292.335px 456.171px;" id="ele4gw43bj95o" class="animable"></path><path d="M292.19,461.57c.16.1.94-.94,2.34-1.55a24.06,24.06,0,0,1,2.71-.72c.06-.15-1.38-.57-3,.15S292,461.51,292.19,461.57Z" style="fill: rgb(255, 255, 255); transform-origin: 294.699px 460.309px;" id="el0kp3k7ubaun" class="animable"></path><path d="M285.3,453.72c.15.11,1.34-1.49,3.44-2.63s4.08-1.35,4.06-1.54a6.49,6.49,0,0,0-4.36,1C286.19,451.77,285.15,453.65,285.3,453.72Z" style="fill: rgb(255, 255, 255); transform-origin: 289.043px 451.612px;" id="elppdt0z2ogw" class="animable"></path><path d="M283.63,445.19c.1.16,1.57-.7,3.59-1s3.69-.07,3.73-.25-1.68-.76-3.84-.37S283.52,445.08,283.63,445.19Z" style="fill: rgb(255, 255, 255); transform-origin: 287.287px 444.324px;" id="el2wm61soar64" class="animable"></path><path d="M282.51,436.91c.1.15,1.55-1,3.7-1.18s3.79.61,3.87.44-.32-.38-1-.67a6.32,6.32,0,0,0-5.69.56C282.74,436.48,282.45,436.86,282.51,436.91Z" style="fill: rgb(255, 255, 255); transform-origin: 286.296px 435.996px;" id="elnbmzbur5cna" class="animable"></path><path d="M286,434.16a2.42,2.42,0,0,0-.1-1.08,7.73,7.73,0,0,0-1.22-2.68A3.41,3.41,0,0,0,283,429a1.2,1.2,0,0,0-1.28.43,1.94,1.94,0,0,0-.27,1.34,4.11,4.11,0,0,0,4.08,3.3,4.8,4.8,0,0,0,4.33-3.1,1.68,1.68,0,0,0-.11-1.38,1.15,1.15,0,0,0-1.27-.44,4.11,4.11,0,0,0-1.73,1.21,8.55,8.55,0,0,0-1.64,2.45,2.67,2.67,0,0,0-.3,1,13.4,13.4,0,0,1,2.25-3.17,3.92,3.92,0,0,1,1.53-1,.64.64,0,0,1,.7.24,1.13,1.13,0,0,1,0,.91,4.29,4.29,0,0,1-3.79,2.65,3.58,3.58,0,0,1-3.5-2.76,1.38,1.38,0,0,1,.15-.94.65.65,0,0,1,.7-.25,3,3,0,0,1,1.39,1.15A10.82,10.82,0,0,1,286,434.16Z" style="fill: rgb(255, 255, 255); transform-origin: 285.692px 431.558px;" id="elq2e5hczzgxk" class="animable"></path><path d="M200.94,284.63l-2.12,56.44-.26,47.14s-1.54,39.22.69,49c0,0,29,1,29,0s4-66,4-66,7.6-49.56,7.85-55.44a153.09,153.09,0,0,1,1.84-15.21s10.91,48.32,11.16,61.08,15.21,75.8,15.21,75.8l24.29-2-6.14-102.05S281.77,268,282,267.21s-76.45,3.65-76.45,3.42S200.94,284.63,200.94,284.63Z" style="fill: #FF1F00; transform-origin: 245.321px 352.385px;" id="el9dm4z3jsxon" class="animable"></path><g id="el5u2jtx1a1c3"><g style="opacity: 0.3; transform-origin: 241.565px 283.615px;" class="animable" id="ela8md77h8y8"><path d="M200.5,287.06s2.19,2.28,18.2,4.14a175.57,175.57,0,0,0,20.56.77l.55-4.91,1.38,4.91c6.3-.17,14.67-1.17,20-1.61a71.68,71.68,0,0,0,21.44-5.76H244l-5-9.38-3.09,10.22Z" id="elxs2ioovmj3r" class="animable" style="transform-origin: 241.565px 283.615px;"></path></g></g><path d="M256.62,342.19l5,47.5a30.44,30.44,0,0,0,18.1,1.77c10-2.15,9.93-3.76,9.93-3.76l-2.85-47.42C277.44,342.94,267.29,343.34,256.62,342.19Z" style="fill: rgb(38, 50, 56); transform-origin: 273.135px 366.191px;" id="elnocnleunfnm" class="animable"></path><path d="M229.1,341.33,226.66,389a30.34,30.34,0,0,1-18,2.75c-10.14-1.6-10.13-3.21-10.13-3.21l.26-47.5C208.36,343.21,218.52,343.05,229.1,341.33Z" style="fill: rgb(38, 50, 56); transform-origin: 213.815px 366.573px;" id="eledmrab2xhzn" class="animable"></path><polyline points="260.91 404.99 290.57 402.22 291.19 412.67 263.12 414.99 260.91 405.38" style="fill: rgb(224, 224, 224); transform-origin: 276.05px 408.605px;" id="elckd2r0f8sw" class="animable"></polyline><polygon points="291.42 416.48 264.08 419.28 266.34 429.15 292.05 426.96 291.42 416.48" style="fill: rgb(224, 224, 224); transform-origin: 278.065px 422.815px;" id="elywmelgvkuxs" class="animable"></polygon><polygon points="261.65 408.63 290.79 405.88 290.99 409.31 262.43 412.02 261.65 408.63" style="fill: rgb(255, 255, 255); transform-origin: 276.32px 408.95px;" id="elqxg7wadwz9i" class="animable"></polygon><polygon points="264.93 422.8 291.62 420.28 291.82 423.71 265.71 426.19 264.93 422.8" style="fill: rgb(255, 255, 255); transform-origin: 278.375px 423.235px;" id="elh9z67jmt4ci" class="animable"></polygon><polygon points="197.61 403.02 197.82 413.31 229.53 415.26 230.19 404.28 197.61 403.02" style="fill: rgb(224, 224, 224); transform-origin: 213.9px 409.14px;" id="eljptk81b3lfj" class="animable"></polygon><polygon points="197.66 405.8 229.97 407.91 229.81 411.65 197.79 409.96 197.66 405.8" style="fill: rgb(255, 255, 255); transform-origin: 213.815px 408.725px;" id="elev8bhj3567i" class="animable"></polygon><path d="M197.92,417.63c0,3.17.19,6.72.41,10.51l30.31,1.73.53-8.69.06-1.56Z" style="fill: rgb(224, 224, 224); transform-origin: 213.575px 423.75px;" id="el4u22kx1po2h" class="animable"></path><polygon points="197.98 420.41 229.09 422.55 228.85 426.29 198.09 424.57 197.98 420.41" style="fill: rgb(255, 255, 255); transform-origin: 213.535px 423.35px;" id="elzf5jv7dnoyj" class="animable"></polygon><g id="eleo2u8vw3ny7"><g style="opacity: 0.3; transform-origin: 209.925px 306.115px;" class="animable" id="elueam2umnt3d"><path d="M200.62,291.21l19.29,3.58q-2.74,13.11-5.48,26.23l-14.49-6.94.28-11,2.68-4.9-2.4-3Z" id="elh96vsm82zbk" class="animable" style="transform-origin: 209.925px 306.115px;"></path></g></g><path d="M300.67,210.73s.83-4.45,1-5.7-9.17-32.24-12.5-39.6c-1.43-3.14-4.26-5.78-7.05-7.77a18.85,18.85,0,0,0-13.73-3.24l-.21,0,6.53,49.61-.72.06a162.55,162.55,0,0,1,4.2,16.61c1.75,8.93,7.08,38.07,7.08,39S306,263.67,306,263.67C307.76,249.36,300.67,210.73,300.67,210.73Z" style="fill: #FF1F00; transform-origin: 287.23px 208.937px;" id="eladimg9zuaxb" class="animable"></path><path d="M286.76,263.67c.08.67.81,4.79.81,4.79l-2.76,4c-1.2,1.73-5.4,12.55-5.4,12.55a2.07,2.07,0,0,0,2.35,2.06c2.34-.14,6.93-5.54,7.9-5.7s3.15,3.31,3.15,3.31.08,4-1.13,5.16-5.9,5.48-5.57,7.5,3.63,1.45,5.49.88,4.76-.88,5.64-2,6.7-6.94,7.18-7.74-.08-9.76,0-12.26.89-9.28.89-9.28l.64-3.25-19.84-3.5Z" style="fill: rgb(38, 50, 56); transform-origin: 292.68px 279.472px;" id="elvexqph0fw8" class="animable"></path><polygon points="285.24 259.74 286.11 263.67 305.95 267.13 305.95 263.67 285.24 259.74" style="fill: rgb(69, 90, 100); transform-origin: 295.595px 263.435px;" id="el0c2f537peat" class="animable"></polygon><path d="M304.48,234.93s-3.9-4.44-12.51-3.27c-7.72,1.05-10.78,5.2-10.78,5.2l1.58,8.9s11.37-6.65,22.72-1Z" style="fill: rgb(224, 224, 224); transform-origin: 293.34px 238.612px;" id="el2mjofa9oz14" class="animable"></path><path d="M304.74,237.43s-4-3.85-12.6-2.68c-7.72,1.05-10.29,4.95-10.29,4.95l.49,3.07s11.4-7.44,22.76-1.84Z" style="fill: rgb(255, 255, 255); transform-origin: 293.475px 238.649px;" id="elnu6vsc7k5g" class="animable"></path><path d="M282.91,173.58a7.5,7.5,0,0,1,0,1.49c0,1-.12,2.33-.26,4a110.23,110.23,0,0,1-2,13.19A106.94,106.94,0,0,1,277,205.15c-.57,1.61-1.07,2.9-1.44,3.78a8,8,0,0,1-.62,1.35,8.39,8.39,0,0,1,.43-1.42c.32-.9.76-2.21,1.28-3.83,1.05-3.24,2.37-7.76,3.48-12.84s1.77-9.74,2.16-13.12c.19-1.69.34-3.07.42-4A9.91,9.91,0,0,1,282.91,173.58Z" style="fill: rgb(38, 50, 56); transform-origin: 278.944px 191.93px;" id="elkqd27lpd9om" class="animable"></path><path d="M286.9,192.85a14,14,0,0,1-1.18,2.81A52.19,52.19,0,0,1,282,202a54.82,54.82,0,0,1-4.54,5.81,14.84,14.84,0,0,1-2.18,2.14,22.27,22.27,0,0,1,1.9-2.38c1.19-1.45,2.79-3.5,4.39-5.86s2.91-4.61,3.81-6.26A23.12,23.12,0,0,1,286.9,192.85Z" style="fill: rgb(38, 50, 56); transform-origin: 281.09px 201.4px;" id="el7h8e5ou5ln2" class="animable"></path><path d="M215.22,134.67a70.45,70.45,0,0,1,46.58-1.73,3.85,3.85,0,0,1,2.09,1.19c1,1.4-.09,3.32-1.18,4.67-4.88,6-10.23,12-17.28,15.17a11.38,11.38,0,0,1-7,1.19c-2.2-.47-4-1.93-5.78-3.35-6.52-5.3-13.11-10.67-18.07-17.44" style="fill: #FF1F00; transform-origin: 239.432px 142.539px;" id="elu94e37hfuf" class="animable"></path><g id="elx5bjx2m5yjn"><g style="opacity: 0.3; transform-origin: 239.432px 142.539px;" class="animable" id="el7k0n58czh9"><path d="M215.22,134.67a70.45,70.45,0,0,1,46.58-1.73,3.85,3.85,0,0,1,2.09,1.19c1,1.4-.09,3.32-1.18,4.67-4.88,6-10.23,12-17.28,15.17a11.38,11.38,0,0,1-7,1.19c-2.2-.47-4-1.93-5.78-3.35-6.52-5.3-13.11-10.67-18.07-17.44" id="elo665gzhpk5" class="animable" style="transform-origin: 239.432px 142.539px;"></path></g></g><path d="M264.21,114.74a34.43,34.43,0,0,0,4.14-17.21,12.55,12.55,0,0,0-1.68-6.69c-1.35-2-6.21-4.35-8.36-5.54l1.12,7.92s4.41,5.15,4.68,5.72S264.21,114.74,264.21,114.74Z" style="fill: rgb(38, 50, 56); transform-origin: 263.335px 100.02px;" id="el64bcxbpehtd" class="animable"></path><path d="M227.45,118.1a78.25,78.25,0,0,1-3.23-13.18,27.47,27.47,0,0,1,1.26-13.38c.25-.64,2.35-4.93,3-4.85.49,0-.82,4.06-.58,4.49a23.3,23.3,0,0,1,2.43,13.62,62,62,0,0,1-2.91,13.3" style="fill: rgb(38, 50, 56); transform-origin: 227.205px 102.394px;" id="el3v2vf1tua8c" class="animable"></path><path d="M227.25,100.82C227,89.46,233.48,79.88,244.83,80l1,.07a20.29,20.29,0,0,1,18.93,20c.13,9.84.14,20.72-.28,26-.88,10.86-11.86,11.81-11.86,11.81s.14,17.89.14,17.89l-25.79.67Z" style="fill: rgb(228, 147, 132); transform-origin: 245.905px 118.219px;" id="els9ugt5wqrs9" class="animable"></path><path d="M252.67,137.83a26.35,26.35,0,0,1-13.88-5.14s2.88,9.06,13.8,8.81Z" style="fill: rgb(168, 107, 98); transform-origin: 245.73px 137.098px;" id="elhaacqwdjqr" class="animable"></path><path d="M259.46,108.92a1.55,1.55,0,0,1-1.6,1.47,1.48,1.48,0,0,1-1.5-1.51,1.55,1.55,0,0,1,1.6-1.47A1.49,1.49,0,0,1,259.46,108.92Z" style="fill: rgb(38, 50, 56); transform-origin: 257.91px 108.9px;" id="elsjl6qzyw7ka" class="animable"></path><path d="M262.18,104.41c-.2.19-1.32-.76-3-.87s-2.95.64-3.12.42.14-.45.7-.8a4.23,4.23,0,0,1,2.51-.59,4.12,4.12,0,0,1,2.37,1C262.13,103.94,262.28,104.32,262.18,104.41Z" style="fill: rgb(38, 50, 56); transform-origin: 259.111px 103.496px;" id="el4tluhalvscb" class="animable"></path><path d="M244.56,108.43a1.55,1.55,0,0,1-1.6,1.46,1.48,1.48,0,0,1-1.51-1.51,1.55,1.55,0,0,1,1.6-1.46A1.49,1.49,0,0,1,244.56,108.43Z" style="fill: rgb(38, 50, 56); transform-origin: 243.005px 108.405px;" id="ellzbddov1tce" class="animable"></path><path d="M245.77,104c-.21.19-1.32-.76-3-.87s-3,.64-3.12.43.13-.45.69-.8a4.35,4.35,0,0,1,2.52-.6,4.12,4.12,0,0,1,2.37,1C245.72,103.51,245.87,103.89,245.77,104Z" style="fill: rgb(38, 50, 56); transform-origin: 242.71px 103.087px;" id="elve9gm2rxfr" class="animable"></path><path d="M250.89,117.22a10.65,10.65,0,0,1,2.75-.31c.43,0,.84-.07.93-.36a2.2,2.2,0,0,0-.2-1.28c-.33-1.06-.68-2.17-1-3.34-1.44-4.74-2.45-8.63-2.26-8.69s1.52,3.75,3,8.49c.35,1.17.68,2.29,1,3.35a2.48,2.48,0,0,1,.11,1.69,1.11,1.11,0,0,1-.75.58,3.2,3.2,0,0,1-.73.05A11.08,11.08,0,0,1,250.89,117.22Z" style="fill: rgb(38, 50, 56); transform-origin: 253.104px 110.332px;" id="el7cmk3snmd9f" class="animable"></path><path d="M245.9,118c.27,0,.15,1.81,1.61,3.21s3.41,1.32,3.41,1.58c0,.11-.45.32-1.27.29a4.55,4.55,0,0,1-2.85-1.22,3.93,3.93,0,0,1-1.24-2.68C245.54,118.45,245.77,118,245.9,118Z" style="fill: rgb(38, 50, 56); transform-origin: 248.239px 120.541px;" id="el2y07cnib6kc" class="animable"></path><path d="M246.14,97.19c-.2.44-1.85.11-3.83.21s-3.59.53-3.83.11c-.1-.2.21-.61.87-1a6.49,6.49,0,0,1,2.89-.8,6.63,6.63,0,0,1,2.95.55C245.89,96.59,246.22,97,246.14,97.19Z" style="fill: rgb(38, 50, 56); transform-origin: 242.307px 96.6972px;" id="elhffq7ov4825" class="animable"></path><path d="M261.87,98.81c-.32.36-1.44-.12-2.83-.23s-2.57.08-2.81-.33c-.11-.2.1-.57.64-.9a4,4,0,0,1,2.34-.46,3.8,3.8,0,0,1,2.2.92C261.88,98.23,262,98.63,261.87,98.81Z" style="fill: rgb(38, 50, 56); transform-origin: 259.06px 97.9041px;" id="elj643qmytrkh" class="animable"></path><path d="M227.59,108.93c-.18-.09-7.32-2.72-7.59,4.73s7.27,6.18,7.29,6S227.59,108.93,227.59,108.93Z" style="fill: rgb(228, 147, 132); transform-origin: 223.791px 114.13px;" id="el99btrwnszgc" class="animable"></path><path d="M225.12,116.72s-.14.09-.36.18a1.29,1.29,0,0,1-1,0,3.22,3.22,0,0,1-1.38-2.94,4.23,4.23,0,0,1,.43-1.84,1.46,1.46,0,0,1,1-1,.65.65,0,0,1,.75.38c.09.21,0,.36.08.37s.17-.11.12-.42a.87.87,0,0,0-.28-.48,1,1,0,0,0-.71-.22,1.83,1.83,0,0,0-1.4,1.11,4.43,4.43,0,0,0-.52,2.06c0,1.5.71,2.93,1.78,3.28a1.37,1.37,0,0,0,1.19-.15C225.1,116.9,225.14,116.74,225.12,116.72Z" style="fill: rgb(168, 107, 98); transform-origin: 223.487px 114.01px;" id="el8d9kyi2rmux" class="animable"></path><path d="M260.33,87.58c1.22-.63-2.29-4.64-5.22-6.06-4.42-2.16-11.23-3.59-15.39-2.53-5,1.27-9.21,3.63-11.83,8.09A29.28,29.28,0,0,0,224.2,102a8.87,8.87,0,0,0,.93,4.58c1,1.67,3,2.76,2.81,5a3.16,3.16,0,0,0,.71,2.3c1.33,1.49,3,.17,3.84-1.18,1.71-2.87,2-6.35,2.22-9.69a21.66,21.66,0,0,0-.28-7.1c-.33-1.25-.88-2.44-1.14-3.71a4.44,4.44,0,0,1,.63-3.7,4.51,4.51,0,0,1,.62-.6,7.8,7.8,0,0,1,7.75-1.26c4.15,1.6,11.26,4,13.17,2.64a11.5,11.5,0,0,0,3.43-3.3Z" style="fill: rgb(38, 50, 56); transform-origin: 242.38px 96.5854px;" id="elbfyu0nzft37" class="animable"></path><path d="M240.14,78a16.35,16.35,0,0,1,12.56,1,8.49,8.49,0,0,1,4.36,5.07c.56,2.22-.45,4.91-2.6,5.72l-.15.08c-3.2,1-5.26.51-8.4-.68-2.64-1-5-2.7-7.61-3.68a15.14,15.14,0,0,0-8.86-.5A24.67,24.67,0,0,1,240.14,78Z" style="fill: rgb(38, 50, 56); transform-origin: 243.326px 83.799px;" id="elpfgxqqo7oa" class="animable"></path><path d="M226.63,110.32a.79.79,0,0,1,0-.25c0-.19,0-.44,0-.75,0-.69,0-1.67-.06-2.92,0-2.6-.09-6.33-.16-11v0l0,0,7.21-11.62.06-.1h.11l23.12-1.29H257l.08.08L266.25,92l.08.08v.11c-.07,1.5-.14,3.1-.22,4.72-.22,4.82-.44,9.52-.66,14.06-.05,1.14-.1,2.26-.16,3.38a14.94,14.94,0,0,1-.4,3.33,12.85,12.85,0,0,1-3,5.71,12.19,12.19,0,0,1-5.25,3.21,17.47,17.47,0,0,1-2.88.69c-1,.1-1.92.18-2.85.22a20,20,0,0,1-9.94-2.78,33.75,33.75,0,0,1-6.82-5.16,48.69,48.69,0,0,1-4.34-4.77c-1.1-1.39-1.88-2.52-2.4-3.29-.25-.39-.44-.69-.56-.9a1.59,1.59,0,0,1-.17-.32s.07.1.21.29.35.51.61.87c.54.75,1.35,1.86,2.47,3.22a50,50,0,0,0,4.38,4.69,34.53,34.53,0,0,0,6.8,5,19.7,19.7,0,0,0,9.75,2.66c.92,0,1.85-.12,2.8-.22a17.19,17.19,0,0,0,2.79-.68,11.79,11.79,0,0,0,5.05-3.11,12.27,12.27,0,0,0,2.9-5.5,13.73,13.73,0,0,0,.39-3.23c.05-1.11.1-2.24.15-3.37.21-4.55.43-9.25.65-14.07.08-1.62.16-3.23.23-4.73l.07.19-9.16-9.67.2.08L233.79,84l.17-.1-7.3,11.57,0-.09v11c0,1.26,0,2.24,0,2.94v.76C226.64,110.23,226.63,110.32,226.63,110.32Z" style="fill: rgb(224, 224, 224); transform-origin: 246.37px 104.95px;" id="el6kdbv8li3mm" class="animable"></path><path d="M266.19,88.7l-7.76-3.25-.24-.07-12.6-2.69a1.37,1.37,0,0,0-.75.06L236,86a1,1,0,0,0-.28.14l-8.62,5.73a1.35,1.35,0,0,0-.6,1l-.33,4.25a.48.48,0,0,0,0,.17l.82,17.45a1.35,1.35,0,0,0,1.35,1.3h0a1.36,1.36,0,0,0,1.36-1.41l-.19-4.69c0-5.34-1.64-15.38,5.6-19.53s15.28-3.11,19-2.41,8.7,2.89,9.63,5.18c.79,1.94,1.06,16.93,1.12,21.52a1.36,1.36,0,0,0,1.36,1.34h0a1.37,1.37,0,0,0,1.36-1.28l1.21-20.25a1.41,1.41,0,0,0-.09-.58l-1.81-4.52A1.36,1.36,0,0,0,266.19,88.7Z" style="fill: rgb(69, 90, 100); transform-origin: 247.477px 99.3516px;" id="elh78eq5igimg" class="animable"></path><path d="M267.34,94.7c-.6-3-3.66-8.42-19.38-9-11.56-.44-16.23,4.09-19.08,7.3a6.87,6.87,0,0,0-1.67,4.33s-.27,4.87-.27,6.41l.06,5-4.63-2c-3.71-2-4.17-4.83-2.66-6.76h0s0-2.78.39-8.07c.49-6.64,4-14,9.6-16.83a53.08,53.08,0,0,1,12.82-4.13l.65-2.38a1,1,0,0,1,.93-.71h5.48a1,1,0,0,1,.93.71l.62,2.23s10.36,3.72,14,8.69,5,13.9,5,13.9a55.29,55.29,0,0,1,.08,7.89h0a4.19,4.19,0,0,1,.09,5.94c-1.21,1.25-2.39,2.26-2.39,2.26l-.07-5.64Z" style="fill: #FF1F00; transform-origin: 245.197px 88.67px;" id="el3pvq5qopzjb" class="animable"></path><path d="M225.11,104.38a1.61,1.61,0,0,1-.3-.35c-.18-.23-.43-.59-.74-1.06A17,17,0,0,1,222,98.66a8.34,8.34,0,0,1,1.58-6.85,21.42,21.42,0,0,1,2.92-3A37.21,37.21,0,0,1,230,86a35.78,35.78,0,0,1,3.85-2.35c1.29-.69,2.58-1.24,3.72-1.89a8.36,8.36,0,0,0,2.8-2.35,8.69,8.69,0,0,0,1.22-2.95c.44-1.94.59-3.57.77-4.68.09-.56.17-1,.23-1.28a1.59,1.59,0,0,1,.13-.44s-.05.62-.15,1.74a43.25,43.25,0,0,1-.63,4.74,7.47,7.47,0,0,1-4.13,5.63c-1.17.69-2.45,1.25-3.72,1.93a37.6,37.6,0,0,0-7.29,5.08,20.92,20.92,0,0,0-2.88,2.94,8,8,0,0,0-1.61,6.47,18.52,18.52,0,0,0,1.93,4.3C224.8,103.83,225.14,104.35,225.11,104.38Z" style="fill: rgb(38, 50, 56); transform-origin: 232.27px 87.22px;" id="el8729z0z1mfq" class="animable"></path><g id="elhjuc1z7c6l"><g style="opacity: 0.3; transform-origin: 231.504px 87.22px;" class="animable" id="elq1nl29zzuoi"><path d="M225.11,104.38s-3.19-4.42-3.19-7.14a8,8,0,0,1,.14-1.48,9.78,9.78,0,0,1,2.7-5,38,38,0,0,1,10-7.3c2-1,4.28-2,5.66-3.75,1.75-2.3,1.73-6.59,2.29-9.65,0,0-1.55,6.41-3.29,8.6s-9.11,3.93-15.65,10.7-2.16,11.83-.39,13.47C224.14,103.5,225.11,104.38,225.11,104.38Z" id="el8i0z0vow0j4" class="animable" style="transform-origin: 231.504px 87.22px;"></path></g></g><path d="M270.06,92.87a13,13,0,0,0-2.26-3.93,26.17,26.17,0,0,0-9-6.24A11.81,11.81,0,0,1,256,81.1a7.25,7.25,0,0,1-1.8-2.43c-.81-1.74-1.41-3.31-2-4.63s-.92-2.42-1.15-3.18a4.93,4.93,0,0,1-.3-1.21,6,6,0,0,1,.49,1.14c.29.74.73,1.81,1.3,3.11s1.24,2.88,2,4.55a7.19,7.19,0,0,0,1.71,2.26,11.34,11.34,0,0,0,2.7,1.52,24.7,24.7,0,0,1,9.06,6.47,9.69,9.69,0,0,1,1.69,3,4.46,4.46,0,0,1,.25.89C270.07,92.75,270.08,92.86,270.06,92.87Z" style="fill: rgb(38, 50, 56); transform-origin: 260.409px 81.26px;" id="el6icm8rj89qs" class="animable"></path><path d="M239.72,117.93a3.5,3.5,0,0,1-.36-.9c-.21-.59-.48-1.45-.79-2.52-.63-2.15-1.41-5.14-2.11-8.48-.77-3.62-1.28-6.91-1.55-9.11l.34-.06c.29,1.59.46,2.63.47,2.92h-.06c0-.11,0-.14,0-.14s0,0,0,.14l0,.21-.08-.2c-.11-.26-.38-1.28-.75-2.86l.34-.06c.38,2.18.95,5.44,1.72,9.06.7,3.32,1.42,6.32,1.95,8.48A28.38,28.38,0,0,1,239.72,117.93Z" style="fill: rgb(224, 224, 224); transform-origin: 237.275px 107.395px;" id="el3x5ucjus82o" class="animable"></path><path d="M241.71,115.55a62.13,62.13,0,0,1-2-7.89,61.4,61.4,0,0,1-1.46-8,64.11,64.11,0,0,1,2,7.9A65.42,65.42,0,0,1,241.71,115.55Z" style="fill: rgb(224, 224, 224); transform-origin: 239.98px 107.605px;" id="eltv4iin554mb" class="animable"></path><path d="M262.52,117.51a69,69,0,0,1,0-8.31,64.91,64.91,0,0,1,.5-8.31,68.19,68.19,0,0,1,0,8.32A65.67,65.67,0,0,1,262.52,117.51Z" style="fill: rgb(224, 224, 224); transform-origin: 262.771px 109.2px;" id="elkigopg18w5g" class="animable"></path><g id="elij2k14vatc"><g style="opacity: 0.3; transform-origin: 260.222px 80.905px;" class="animable" id="elrnyc2j47hl"><path d="M266.07,85.43c-1.82-1.39-4-2.3-5.89-3.52-4-2.53-6.63-7.17-9.05-11.2,1.35,3.53,2.1,6.55,4,9,2.13,2.76,5.89,3.56,8.86,5.39a13.84,13.84,0,0,1,5.32,6C269.4,88.89,267.88,86.82,266.07,85.43Z" id="elyk6m8mzl2lm" class="animable" style="transform-origin: 260.222px 80.905px;"></path></g></g><path d="M205.8,214v12.53a302.74,302.74,0,0,1,34.89,2.1c19.95,2.29,34.6-1.72,34.6-1.72V215Z" style="fill: rgb(38, 50, 56); transform-origin: 240.545px 221.668px;" id="elnddgmf73b1j" class="animable"></path><path d="M211.58,148.71s-1.85-3.33-.57-5.52a9.65,9.65,0,0,1,3-3.24v-5.78s12.72,1.15,18.74,6A56,56,0,0,1,243,151.63s7.4-7.06,11.33-9.6,9.6-10.18,9.6-10.18l3.47,1.74-.7,2.89s6.25,6.71,7.06,10.75a2.12,2.12,0,0,1-1.16,2.32c-1.5.69-6.73,2.15-6.73,2.15s6.45,6.29,7.92,11,4.82,37,2.74,43.36-3.93,8.92-3.93,8.92L210,214l-3.09-64.3,5.15-1" style="fill: #FF1F00; transform-origin: 242.051px 173.415px;" id="elxddyuo5ul08" class="animable"></path><path d="M208.74,188.42c31.44-16.68,68.13,0,68.13,0l-1-11.46s-11.67-6.3-31.69-7.74a73.42,73.42,0,0,0-36.05,7.07Z" style="fill: rgb(224, 224, 224); transform-origin: 242.5px 178.756px;" id="ela2vf14mwie" class="animable"></path><path d="M211.28,184.08c30.24-13.59,65.39,1.51,65.39,1.51l-.26-6.3s-12.45-6.58-32.47-7.47-33.84,6-33.84,6Z" style="fill: rgb(255, 255, 255); transform-origin: 243.385px 178.665px;" id="eljh3i8mcvtp" class="animable"></path><path d="M216.63,148.5s-12.42-.57-14.91,5l4.08,67.84,9.3,1.16Z" style="fill: rgb(38, 50, 56); transform-origin: 209.175px 185.492px;" id="el6pdk051rw2e" class="animable"></path><path d="M264,152a17.72,17.72,0,0,1,8.56.76c4.68,1.83,5,3.07,5.55,8.74s.95,13.46.95,22.67-4.12,33.26-4.12,38.28l-10.64-.3s5-33.44,3.85-42.13S264,152,264,152Z" style="fill: rgb(38, 50, 56); transform-origin: 271.53px 187.117px;" id="el6fjqkf6nmw" class="animable"></path><path d="M269,151.1a5.63,5.63,0,0,1-1.2.34l-3.31.75c-2.79.64-6.64,1.52-10.88,2.59s-8,2.11-10.8,2.88l-3.27.9a6.69,6.69,0,0,1-1.22.27,5.32,5.32,0,0,1,1.16-.47c.76-.27,1.86-.63,3.22-1.06,2.74-.86,6.54-2,10.79-3s8.11-1.9,10.93-2.44c1.4-.27,2.55-.47,3.34-.59A5.63,5.63,0,0,1,269,151.1Z" style="fill: rgb(38, 50, 56); transform-origin: 253.66px 154.965px;" id="el2hczu4m4r4d" class="animable"></path><path d="M267.21,135.33a3.3,3.3,0,0,1-.4.91,19,19,0,0,1-1.46,2.3,29.9,29.9,0,0,1-6.41,6.26,58.45,58.45,0,0,1-7.63,4.67c-1,.53-1.85.94-2.42,1.22a3.63,3.63,0,0,1-.93.37,29.8,29.8,0,0,1,3.17-1.91,79.6,79.6,0,0,0,7.5-4.77,33.86,33.86,0,0,0,6.43-6.06C266.47,136.54,267.13,135.28,267.21,135.33Z" style="fill: rgb(38, 50, 56); transform-origin: 257.585px 143.194px;" id="elh7qtjxwe3o7" class="animable"></path><path d="M232,146.4c-.07.06-.82-.77-2.23-1.88a21.75,21.75,0,0,0-12.94-4.68c-1.8,0-2.91.12-2.92,0a2.42,2.42,0,0,1,.77-.19,13.06,13.06,0,0,1,2.15-.19A19.63,19.63,0,0,1,230,144.23a13.54,13.54,0,0,1,1.53,1.53C231.84,146.15,232,146.38,232,146.4Z" style="fill: rgb(38, 50, 56); transform-origin: 222.955px 142.93px;" id="elu0zbndvn2r" class="animable"></path><path d="M229.1,157.44a13.61,13.61,0,0,1-2.23-2.2,23.08,23.08,0,0,0-5.55-5,14.87,14.87,0,0,0-7.14-1.72c-1.92,0-3.07.38-3.09.29a2.31,2.31,0,0,1,.79-.3,11,11,0,0,1,2.28-.36,14,14,0,0,1,7.41,1.64,20.53,20.53,0,0,1,5.58,5.15A28.4,28.4,0,0,1,229.1,157.44Z" style="fill: rgb(38, 50, 56); transform-origin: 220.095px 152.784px;" id="el7feads9hg7a" class="animable"></path><path d="M286.11,284.83a1.86,1.86,0,0,1-.54.08L284,285l-5.69.37-18.77,1-17.46.82H242l0-.16c-.66-2.67-1.2-4.86-1.59-6.46-.17-.72-.3-1.3-.41-1.77a2.9,2.9,0,0,1-.1-.63,2.74,2.74,0,0,1,.21.6c.14.46.3,1,.51,1.74l1.76,6.43-.2-.15,17.45-.95,18.78-.88,5.7-.2,1.55,0A3.25,3.25,0,0,1,286.11,284.83Z" style="fill: rgb(38, 50, 56); transform-origin: 263.005px 282.68px;" id="elq1lpsg9bj4" class="animable"></path><path d="M206.88,226.34s-8,16.11-8.89,31.54a181.68,181.68,0,0,0,.74,29.18H237.4s2-11.15,2-10.59,2.65,10.59,2.65,10.59l44-2.23s-3.5-37.4-10.82-58l-16.7-4.4H208.16Z" style="fill: #FF1F00; transform-origin: 241.882px 254.745px;" id="elsq78z0rjbti" class="animable"></path><path d="M239,271.81H197.82c-.16-3.38-.15-6.87,0-10.47h41.09Z" style="fill: rgb(224, 224, 224); transform-origin: 218.352px 266.575px;" id="elflu9ohhjoog" class="animable"></path><rect x="197.71" y="264.63" width="41.33" height="3.88" style="fill: rgb(255, 255, 255); transform-origin: 218.375px 266.57px;" id="elxe2byd2wil" class="animable"></rect><path d="M283.09,260.84l-43.77.5q-.25,5.07,0,10.47l45.38-.13Z" style="fill: rgb(224, 224, 224); transform-origin: 261.947px 266.325px;" id="el920m3nhna65" class="animable"></path><polygon points="283.65 264.64 239.19 264.64 239.19 268.52 284.27 268.52 283.65 264.64" style="fill: rgb(255, 255, 255); transform-origin: 261.73px 266.58px;" id="el0naiz9mykw69" class="animable"></polygon><path d="M251.22,144.5s-.1.11-.31.3l-.94.83-3.65,3.17-13.67,11.77.06-.14c.22,4.28.35,9.07.67,14.28s.73,10.85,1.12,16.82c.85,12,1.79,25.28,2.78,39.32.58,8.5,1.11,16.74,1.56,24.57s.82,15.24.73,22.1v0c-.69,3.35-1.34,6.52-2,9.55l0,.16h-.17l-28.16-.09-7.78-.05-2,0c-.46,0-.7,0-.7,0l.7,0,2,0,7.78-.05,28.16-.09-.2.16q.92-4.53,1.92-9.55v0c.07-6.82-.36-14.24-.78-22.06s-1-16.07-1.58-24.57c-1-14-1.9-27.36-2.73-39.31-.41-6-.77-11.62-1.06-16.83s-.42-10-.6-14.3v-.08l.07-.06,13.77-11.64,3.71-3.11,1-.79C251.1,144.58,251.22,144.5,251.22,144.5Z" style="fill: rgb(38, 50, 56); transform-origin: 224.99px 215.865px;" id="elyvzzvma1ez9" class="animable"></path><g id="elpbukbypq2vp"><g style="opacity: 0.3; transform-origin: 239.426px 234.416px;" class="animable" id="elz5b7n85rsi"><path d="M249.17,220.23c-.11-1.88-.37-3.89-1.59-5.32a6.26,6.26,0,0,0-4.89-1.93,15.58,15.58,0,0,0-5.25,1.3c-2.69,1.06-5.49,2.45-6.86,5-1.46,2.72-.93,6-.35,9.08q2.16,11.38,4.33,22.78l-1.39,4.67c2.89.44,5.55-2,6.49-4.79s.61-5.78.49-8.69,0-6.05,1.75-8.42c1.56-2.17,4.2-3.39,5.72-5.59S249.32,223,249.17,220.23Z" id="el96jg64xf54v" class="animable" style="transform-origin: 239.426px 234.416px;"></path></g></g><path d="M215,214.07s.8-5.93,2.46-9.33,22.26-2.27,25-1.65,4.65,6.18,5.58,10.87-.64,11.31-.64,11.31l-21.95-3.64Z" style="fill: rgb(38, 50, 56); transform-origin: 231.667px 213.836px;" id="elyouqhkm7et" class="animable"></path><polygon points="244.84 209.28 255.78 153.96 259.73 153.03 246.81 212.67 244.84 209.28" style="fill: rgb(69, 90, 100); transform-origin: 252.285px 182.85px;" id="el9i7ztrgszws" class="animable"></polygon><polygon points="215.92 211.6 213.72 148.48 217.27 148.48 218.23 208.48 215.92 211.6" style="fill: rgb(69, 90, 100); transform-origin: 215.975px 180.04px;" id="elokisjw1d0v" class="animable"></polygon><rect x="215" y="205.52" width="32.45" height="25.84" rx="12.54" style="fill: rgb(224, 224, 224); transform-origin: 231.225px 218.44px;" id="elps6imajyakd" class="animable"></rect><path d="M234.91,231.36a20.09,20.09,0,0,0,3.66-.65,12.9,12.9,0,0,0,3.81-2A12.11,12.11,0,0,0,246,224.3a12,12,0,0,0,1.05-3.14,15.66,15.66,0,0,0,.19-3.59A12.27,12.27,0,0,0,237.06,206a27.44,27.44,0,0,0-4.66-.19h-4.86a12.34,12.34,0,0,0-12.24,11.11,16.75,16.75,0,0,0,.13,4.08,12.45,12.45,0,0,0,1.23,3.63,13.27,13.27,0,0,0,2.11,2.89,12.65,12.65,0,0,0,2.62,2,12.1,12.1,0,0,0,5.42,1.65c1.69.09,3.17.05,4.37.09l2.77,0,.72,0a.75.75,0,0,1,.24,0,.64.64,0,0,1-.24,0l-.72,0-2.77.05c-1.2,0-2.66.07-4.39,0a12.55,12.55,0,0,1-5.59-1.63,13,13,0,0,1-2.72-2.07,13.88,13.88,0,0,1-2.2-3,13,13,0,0,1-1.3-3.75c0-.34-.12-.68-.15-1l-.06-1.05c0-.69,0-1.4,0-2.13a12.81,12.81,0,0,1,12.72-11.58h4.86a27,27,0,0,1,4.75.21,12.7,12.7,0,0,1,10.49,12.08,16,16,0,0,1-.22,3.69,12.77,12.77,0,0,1-4.86,7.69,12.87,12.87,0,0,1-3.93,2,12.26,12.26,0,0,1-2.75.46h-1Z" style="fill: rgb(69, 90, 100); transform-origin: 231.193px 218.217px;" id="el4hq6em386yl" class="animable"></path><path d="M237.07,231.73a6,6,0,1,0-12,0v15.84h12Z" style="fill: rgb(69, 90, 100); transform-origin: 231.07px 236.65px;" id="el45g57073dvf" class="animable"></path><rect x="223.33" y="238.62" width="15.7" height="2.47" rx="1.2" style="fill: rgb(69, 90, 100); transform-origin: 231.18px 239.855px;" id="el52ysvldculp" class="animable"></rect><path d="M237.83,241.09s.12,0,.33-.11a1.14,1.14,0,0,0,.66-.62,1.17,1.17,0,0,0-.27-1.31,1.07,1.07,0,0,0-.8-.27l-1.1,0c-3.1,0-7.39.08-12.12.08a1,1,0,0,0-.94.83,1,1,0,0,0,.64,1.07.91.91,0,0,0,.33.05h2.8l5.45.05,3.67.08a5.86,5.86,0,0,1,1.35.11,7.33,7.33,0,0,1-1.35.1l-3.67.08-5.45.06h-2.8a1.71,1.71,0,0,1-.49-.07,1.5,1.5,0,0,1,.46-2.92c4.73,0,9,0,12.12.08l1.1,0a1.35,1.35,0,0,1,1,.39,1.39,1.39,0,0,1,.25,1.61,1.23,1.23,0,0,1-.81.63A.62.62,0,0,1,237.83,241.09Z" style="fill: rgb(38, 50, 56); transform-origin: 231.102px 239.795px;" id="el06ltp8j147w" class="animable"></path><circle cx="231.18" cy="249.21" r="7.25" style="fill: rgb(69, 90, 100); transform-origin: 231.18px 249.21px;" id="elo9qyhopke8h" class="animable"></circle><path d="M239.93,212.67s-.19.26-.61.67-1,1-1.83,1.67a67.34,67.34,0,0,1-6.54,4.9,65.23,65.23,0,0,1-7.09,4.05c-.94.45-1.72.8-2.26,1a2.75,2.75,0,0,1-.86.29,30,30,0,0,1,2.95-1.64c1.83-1,4.32-2.42,7-4.16s5-3.46,6.58-4.75A30.4,30.4,0,0,1,239.93,212.67Z" style="fill: rgb(255, 255, 255); transform-origin: 230.335px 218.96px;" id="elobjnpblmbre" class="animable"></path><path d="M233.64,214A66.21,66.21,0,0,1,228,217.4a64.76,64.76,0,0,1-5.74,3.3,31.36,31.36,0,0,1,5.47-3.75A31.72,31.72,0,0,1,233.64,214Z" style="fill: rgb(255, 255, 255); transform-origin: 227.95px 217.35px;" id="elx99p895cszp" class="animable"></path><path d="M237.49,247.57s.06.13.13.39a4.45,4.45,0,0,1,.07,1.19,8.44,8.44,0,0,1-1.53,4.08,7.2,7.2,0,0,1-2.19,2.13,6,6,0,0,1-3.44.73,6.29,6.29,0,0,1-5.74-5,7,7,0,0,1,1.41-6,7.1,7.1,0,0,1,4.83-2.47h0a8.59,8.59,0,0,1,3.49.92,5.63,5.63,0,0,1,2.06,1.85,5.57,5.57,0,0,1,.75,1.6,1.85,1.85,0,0,1,.12.61,10.67,10.67,0,0,0-1.07-2.07,5.51,5.51,0,0,0-2-1.68A8.23,8.23,0,0,0,231,243h0a6.67,6.67,0,0,0-4.49,2.35A6.53,6.53,0,0,0,225.3,251a5.83,5.83,0,0,0,5.27,4.65,5.63,5.63,0,0,0,3.19-.63,6.84,6.84,0,0,0,2.1-2,8.73,8.73,0,0,0,1.63-3.89A9,9,0,0,0,237.49,247.57Z" style="fill: rgb(38, 50, 56); transform-origin: 231.158px 249.367px;" id="eltn6pnfpiji" class="animable"></path><g id="ely8ms4v6b5ns"><g style="opacity: 0.3; transform-origin: 252.295px 155.184px;" class="animable" id="elwputo8774gg"><path d="M239.19,158.54a56.5,56.5,0,0,0,14-1.06c4.57-1,8.78-2.52,12.21-5.72-8.59,2.08-16.88,3.92-25.33,6.53" id="elbr35xfpa4" class="animable" style="transform-origin: 252.295px 155.184px;"></path></g></g><path d="M201.72,153.47c-.95.38-5.16,4-7.45,6.88s-13.38,29.25-16.06,48.36-3.05,51-3.05,51l21.4-.95,8.22-57.15-.46-4.9Z" style="fill: #FF1F00; transform-origin: 189.97px 206.59px;" id="elhztgb3smsc8" class="animable"></path><path d="M176.1,232.71s4.68-3.26,13.29-2.09c7.72,1,10.49,5.1,10.49,5.1l-1.29,9s-11.65-6.52-23-.91Z" style="fill: rgb(224, 224, 224); transform-origin: 187.735px 237.543px;" id="elpehtnuzx24" class="animable"></path><path d="M175.92,235.8s4.68-3.26,13.29-2.09c7.72,1,10.29,4.95,10.29,4.95l-.48,3.07s-11.9-8.07-23.26-2.47Z" style="fill: rgb(255, 255, 255); transform-origin: 187.63px 237.593px;" id="elubvafspgbbr" class="animable"></path><path d="M196.14,164.32a9.89,9.89,0,0,1,.46,1.41c.26.92.61,2.26,1,3.91.83,3.31,1.89,7.91,3,13l2.94,13,.92,3.94a7.87,7.87,0,0,1,.28,1.45,9.07,9.07,0,0,1-.48-1.4c-.27-.92-.64-2.25-1.07-3.9-.87-3.3-2-7.89-3.1-13s-2.11-9.59-2.86-13c-.35-1.59-.65-2.92-.87-3.95A7.55,7.55,0,0,1,196.14,164.32Z" style="fill: rgb(38, 50, 56); transform-origin: 200.44px 182.675px;" id="el6jj0xtbptxu" class="animable"></path><path d="M129.24,239.46s-8.88,7.39-5.85,10.08,48.53,27.18,57.76,32.29c9.68,5.37,9.21,5.12,24,17.37l3.61-10.56s-31.17-14.53-38.3-20.25S129.24,239.46,129.24,239.46Z" style="fill: rgb(69, 90, 100); transform-origin: 165.76px 269.33px;" id="el2pl88dnohow" class="animable"></path><path d="M210.12,286.24l4.46,2.78,6.94-11.41s3.45,8.83,2.1,12.36-10.39,18.55-12.15,22.45-3.09,7-3.09,7l-14-8.81a20.28,20.28,0,0,1,4.44-6C201.42,302.47,210.12,286.24,210.12,286.24Z" style="fill: rgb(224, 224, 224); transform-origin: 209.157px 298.515px;" id="el4gu1q18ede6" class="animable"></path><path d="M210.12,286.24a3.24,3.24,0,0,1-.22.49l-.73,1.4c-.64,1.22-1.59,3-2.84,5.23s-2.79,4.93-4.72,7.93c-.49.74-1,1.51-1.58,2.26a9,9,0,0,1-1,1.11c-.35.36-.72.64-1,1a21,21,0,0,0-3.48,5.08l-.08-.29,14,8.78-.37.12,1.86-4.24c.64-1.43,1.23-2.92,2-4.35,3.31-6.21,6.77-12,9.68-17.4.37-.68.72-1.35,1-2a9.53,9.53,0,0,0,.82-2,11.68,11.68,0,0,0-.11-4.17,43.65,43.65,0,0,0-2.1-7.48l.35,0-7,11.37,0,.09-.1-.06-3.25-2.1-.85-.56-.3-.21.28.15.86.5,3.38,2-.15,0,6.87-11.45.2-.35.14.38a43.77,43.77,0,0,1,2.18,7.54,12.2,12.2,0,0,1,.13,4.36,10.32,10.32,0,0,1-.85,2.12q-.49,1-1,2c-2.89,5.46-6.35,11.22-9.65,17.41-.75,1.41-1.34,2.89-2,4.32l-1.86,4.23-.12.27-.25-.15-14-8.83-.17-.12.09-.18a21.65,21.65,0,0,1,3.58-5.18c.35-.36.75-.69,1.08-1a9.3,9.3,0,0,0,.93-1.05c.57-.74,1.08-1.49,1.57-2.23,2-3,3.51-5.65,4.8-7.86l3-5.16.78-1.36A3.05,3.05,0,0,1,210.12,286.24Z" style="fill: rgb(38, 50, 56); transform-origin: 209.108px 298.405px;" id="el3ssqs3l55ul" class="animable"></path><path d="M193.9,281.64l6.6,3a19,19,0,0,0-2-9.46c-1.91-3.93-4.78-9-4.78-9a8.33,8.33,0,0,1,.94-4.18l.65-1.23a8.18,8.18,0,0,0-5-1.08c-2.19.16-4.88-.13-7,.26l-8.12,1.53s.56,7.6.56,10.7c0,.73-.56,9.16-.56,9.16l.62,3.61s10.29,9,11.67,8.77,1.38-.75,1.38-.75,1.49,2.12,2.65,2.12,3.18,1.17,3.61,0-.11-3.48-1.17-5.13a8.67,8.67,0,0,0-2.57-2.23,3.77,3.77,0,0,1-1.75-3.24l.08-7S193.76,278.8,193.9,281.64Z" style="fill: rgb(38, 50, 56); transform-origin: 187.856px 277.627px;" id="elhdz63vp77t8" class="animable"></path><polygon points="175.16 259.74 175.16 262.57 194.65 262.09 196.56 258.79 175.16 259.74" style="fill: rgb(69, 90, 100); transform-origin: 185.86px 260.68px;" id="el4hd4yyu0ran" class="animable"></polygon></g><defs>     <filter id="active" height="200%">         <feMorphology in="SourceAlpha" result="DILATED" operator="dilate" radius="2"></feMorphology>                <feFlood flood-color="#32DFEC" flood-opacity="1" result="PINK"></feFlood>        <feComposite in="PINK" in2="DILATED" operator="in" result="OUTLINE"></feComposite>        <feMerge>            <feMergeNode in="OUTLINE"></feMergeNode>            <feMergeNode in="SourceGraphic"></feMergeNode>        </feMerge>    </filter>    <filter id="hover" height="200%">        <feMorphology in="SourceAlpha" result="DILATED" operator="dilate" radius="2"></feMorphology>                <feFlood flood-color="#ff0000" flood-opacity="0.5" result="PINK"></feFlood>        <feComposite in="PINK" in2="DILATED" operator="in" result="OUTLINE"></feComposite>        <feMerge>            <feMergeNode in="OUTLINE"></feMergeNode>            <feMergeNode in="SourceGraphic"></feMergeNode>        </feMerge>            <feColorMatrix type="matrix" values="0   0   0   0   0                0   1   0   0   0                0   0   0   0   0                0   0   0   1   0 "></feColorMatrix>    </filter></defs></svg>